<?xml version="1.0" encoding="utf-8"?>
<svg version="1.1" xmlns="http://www.w3.org/2000/svg" xmlns:xlink="http://www.w3.org/1999/xlink" x="0px" y="0px"
	 width="100%" height="100%" class="svg-content" viewBox="0 0 1025.949 581.395" enable-background="new 0 0 1025.949 581.395"
	 xml:space="preserve">
<g id="floorplate">
	<polyline fill="#EEEEEE" points="256.222,14.734 773.182,14.734 773.182,27.214 785.902,27.214 785.902,30.574 821.783,30.574 
		821.783,46.294 869.422,46.294 869.422,59.134 881.902,59.134 881.902,62.734 917.182,62.734 917.182,78.454 970.462,78.454 
		970.462,126.454 986.302,126.454 986.302,174.334 1002.382,174.334 1002.382,222.334 1018.342,222.334 1018.342,270.094 
		1002.502,270.094 1002.502,318.094 1018.222,318.094 1018.222,365.734 1001.902,365.734 1001.902,413.974 986.302,413.974 
		986.302,461.974 970.583,461.974 970.583,509.734 917.182,509.734 917.182,525.934 869.663,525.934 869.663,541.894 
		821.783,541.894 821.783,557.974 773.422,557.974 773.422,573.934 255.798,573.934 255.798,558.814 207.982,558.814 
		207.982,541.894 160.462,541.894 160.462,526.294 112.103,526.294 112.103,509.854 59.422,509.854 59.422,461.974 43.583,461.974 
		43.583,413.974 27.623,413.974 27.623,365.974 11.782,365.974 11.782,318.334 27.382,318.334 27.382,270.094 11.782,270.094 
		11.782,222.334 27.142,222.334 27.142,173.948 43.583,173.948 43.583,126.454 59.422,126.454 59.422,78.574 112.462,78.574 
		112.462,62.254 147.862,62.254 147.862,59.374 160.702,59.374 160.702,46.654 208.583,46.654 208.583,30.574 243.742,30.574 
		243.742,27.214 256.462,27.214 256.462,15.334 	"/>
	<polyline fill="none" points="256.222,14.734 773.182,14.734 773.182,27.214 785.902,27.214 785.902,30.574 821.783,30.574 
		821.783,46.294 869.422,46.294 869.422,59.134 881.902,59.134 881.902,62.734 917.182,62.734 917.182,78.454 970.462,78.454 
		970.462,126.454 986.302,126.454 986.302,174.334 1002.382,174.334 1002.382,222.334 1018.342,222.334 1018.342,270.094 
		1002.502,270.094 1002.502,318.094 1018.222,318.094 1018.222,365.734 1001.902,365.734 1001.902,413.974 986.302,413.974 
		986.302,461.974 970.583,461.974 970.583,509.734 917.182,509.734 917.182,525.934 869.663,525.934 869.663,541.894 
		821.783,541.894 821.783,557.974 773.422,557.974 773.422,573.934 255.798,573.934 255.798,558.814 207.982,558.814 
		207.982,541.894 160.462,541.894 160.462,526.294 112.103,526.294 112.103,509.854 59.422,509.854 59.422,461.974 43.583,461.974 
		43.583,413.974 27.623,413.974 27.623,365.974 11.782,365.974 11.782,318.334 27.382,318.334 27.382,270.094 11.782,270.094 
		11.782,222.334 27.142,222.334 27.142,173.948 43.583,173.948 43.583,126.454 59.422,126.454 59.422,78.574 112.462,78.574 
		112.462,62.254 147.862,62.254 147.862,59.374 160.702,59.374 160.702,46.654 208.583,46.654 208.583,30.574 243.742,30.574 
		243.742,27.214 256.462,27.214 256.462,15.334 	"/>
</g>
<g id="empty_space">
	<path fill="#CCCCCC" stroke="#333333" stroke-miterlimit="10" d="M248.782,216.094"/>
	<path fill="#CCCCCC" stroke="#333333" stroke-width="0.75" stroke-miterlimit="10" d="M498.253,370.787l0.016,0.695
		c0,7.748-6.281,14.029-14.03,14.029v-14.569l-0.009-0.155l-0.023,0.188h-39.745V216.428l-7.28-0.094v9.96l-132.48-0.6v0.336
		l-59.92,0.152v41.511l-43.16,0.285l-0.102,114.212l-0.491-0.011c-7.748,0-14.029,6.281-14.029,14.029h14.507l-0.005,5.604
		l338.531-0.456l-0.42,172.576l-283.754,0.36v-15.12h-47.816v-16.92h-47.52v-15.6h-48.36v-16.44h-52.68v-47.88h-15.84v-48h-15.96
		v-48h-15.84v-47.64h15.6v-48.24h-15.6v-47.76h15.36v-48.386h16.44v-47.494h15.84v-47.88h53.04v-16.32h35.4v-2.88h12.84v-12.72
		h47.88v-16.08h35.159v-3.36h12.84l-0.21-12.33l516.811-0.15v69.36l34.38,1.08l-0.057,182.52l-71.703,0.19l0.066-52.391
		l-108.307,0.48l-0.12,154.64h-46.774h-82.497L498.253,370.787z"/>
	<path fill="none" stroke="#333333" stroke-width="0.75" stroke-miterlimit="10" d="M337.48,368.014
		c-0.002,0.115-0.017,0.228-0.017,0.343c0,9.225,7.478,16.703,16.703,16.703c9.225,0,16.703-7.479,16.703-16.703
		c0-0.115-0.015-0.228-0.017-0.343"/>
	<path fill="none" stroke="#333333" stroke-width="0.75" stroke-miterlimit="10" d="M371.146,368.014
		c-0.002,0.115-0.017,0.228-0.017,0.343c0,9.225,7.478,16.703,16.703,16.703c9.225,0,16.703-7.479,16.703-16.703
		c0-0.115-0.015-0.228-0.017-0.343"/>
	<polygon fill="#CCCCCC" stroke="#333333" stroke-width="0.75" stroke-miterlimit="10" points="627.623,215.334 627.623,215.295 
		671.801,215.295 671.801,338.575 652.542,338.575 652.542,371.094 697.842,371.094 697.842,331.014 679.923,331.014 
		679.923,216.295 725.283,216.295 725.283,371.094 735.641,371.094 735.641,215.334 	"/>
	<path fill="none" stroke="#333333" stroke-width="0.75" d="M808.822,268.399l-13.724,0.059l0.016,0.333
		c0,7.748-6.281,14.029-14.029,14.029l-0.01-14.362h-4.642"/>
	<path fill="none" stroke="#333333" stroke-width="0.75" d="M831.438,268.458h-4.642l-0.01,14.362
		c-7.748,0-14.029-6.281-14.029-14.029l0.016-0.333l-13.724-0.059"/>
</g>
<g id="Layer_1">
</g>
<g id="Offices">
	<polygon id="o2620" fill="#C1C1C1" stroke="#6C6C6C" stroke-miterlimit="10" points="830.783,265.204 830.783,294.394 
		807.802,294.394 807.802,412.414 916.822,412.414 916.822,265.204 	"/>
	<rect id="o2616" x="831.438" y="217.024" fill="#C1C1C1" stroke="#6C6C6C" stroke-miterlimit="10" width="39.425" height="47.94"/>
	
		<rect id="o2614_1_" x="831.438" y="168.424" fill="#C1C1C1" stroke="#6C6C6C" stroke-miterlimit="10" width="39.425" height="47.94"/>
	<rect id="o2611" x="942.462" y="174.334" fill="#C1C1C1" stroke="#6C6C6C" stroke-miterlimit="10" width="59.89" height="47.94"/>
	<rect id="o2610" x="870.95" y="168.424" fill="#C1C1C1" stroke="#6C6C6C" stroke-miterlimit="10" width="45.872" height="47.94"/>
	<rect id="o2609" x="942.462" y="222.694" fill="#C1C1C1" stroke="#6C6C6C" stroke-miterlimit="10" width="74.88" height="46.341"/>
	<rect id="o2608" x="870.95" y="217.024" fill="#C1C1C1" stroke="#6C6C6C" stroke-miterlimit="10" width="45.872" height="47.94"/>
	<rect id="o2607" x="942.462" y="269.175" fill="#C1C1C1" stroke="#6C6C6C" stroke-miterlimit="10" width="59.739" height="50.12"/>
	<rect id="o2606" x="942.462" y="319.294" fill="#C1C1C1" stroke="#6C6C6C" stroke-miterlimit="10" width="74.88" height="45.341"/>
	<rect id="o2605" x="942.462" y="364.964" fill="#C1C1C1" stroke="#6C6C6C" stroke-miterlimit="10" width="59.56" height="47.91"/>
	<rect x="716.715" y="445.774" fill="#999999" stroke="#838383" stroke-miterlimit="10" width="7.267" height="0.72"/>
	<rect x="723.982" y="445.774" fill="#999999" stroke="#838383" stroke-miterlimit="10" width="5.28" height="0.36"/>
	<rect x="729.262" y="446.134" fill="#999999" stroke="#838383" stroke-miterlimit="10" width="1.08" height="1.38"/>
	<rect x="984.502" y="580.728" fill="#999999" width="0.36" height="0.667"/>
	<polygon id="o2602" fill="#C1C1C1" stroke="#6C6C6C" stroke-width="0.75" stroke-miterlimit="10" points="915.869,457.084 
		887.892,457.084 887.892,442.338 775.414,442.338 775.414,401.052 732.099,401.236 732.099,443.134 682.516,443.134 
		682.919,573.883 773.842,573.499 773.842,557.083 821.078,557.083 821.078,542.124 869.421,542.124 869.421,526.407 
		916.063,526.407 	"/>
	<path id="o2600" fill="#C1C1C1" stroke="#6C6C6C" stroke-miterlimit="10" d="M682.432,444.211l-82.383,0.244l-0.117-43.462h-18.301
		l-0.01,13.841c-7.748,0-14.029-6.281-14.029-14.029l0.007-0.151h-0.435l0.007,0.151c0,7.748-6.281,14.029-14.029,14.029
		l-0.01-13.44h-13.8v172.509h143.13L682.432,444.211z"/>
	<line fill="none" stroke="#6C6C6C" stroke-miterlimit="10" x1="600.049" y1="444.456" x2="539.93" y2="444.456"/>
</g>
<g id="Bathrooms">
	<polygon id="o2601" fill="#9EA1BF" stroke="#333333" stroke-width="0.75" stroke-miterlimit="10" points="678.515,400.994 
		678.515,416.294 652.475,416.294 652.475,400.994 600.064,400.994 600.064,443.844 732.301,443.844 732.301,400.994 	"/>
	<polygon fill="#9EA1BF" stroke="#333333" stroke-width="0.75" stroke-miterlimit="10" points="652.542,338.974 671.801,338.974 
		671.801,215.694 627.442,215.694 627.442,371.094 652.542,371.094 	"/>
	<polygon fill="#9EA1BF" stroke="#333333" stroke-width="0.75" stroke-miterlimit="10" points="679.923,215.694 679.923,331.414 
		697.842,331.414 697.842,371.094 725.283,371.094 725.283,215.694 	"/>
	<path fill="none" stroke="#333333" stroke-width="0.75" d="M697.327,371.094h11.995l-0.016-0.333
		c0-7.748,6.281-14.029,14.029-14.029l0.01,14.362h1.422"/>
	<path fill="none" stroke="#333333" stroke-width="0.75" d="M629.55,371.094l0.01-14.362c7.748,0,14.029,6.281,14.029,14.029
		l-0.016,0.333"/>
	<path fill="none" stroke="#333333" stroke-width="0.75" d="M775.414,401.052l13.724-0.059l-0.016-0.333
		c0-7.748,6.281-14.029,14.029-14.029l0.01,14.362h4.642"/>
	<path fill="none" stroke="#333333" stroke-width="0.75" d="M652.462,416.356h1.422l0.01-14.362c7.748,0,14.029,6.281,14.029,14.029
		l-0.016,0.333h10.607"/>
	<path fill="none" stroke="#333333" stroke-width="0.75" d="M593.832,370.734l0.01-14.362c7.748,0,14.029,6.281,14.029,14.029
		l-0.016,0.333"/>
</g>
<g id="elevators_x2B_stairs">
	
		<rect x="244.782" y="226.183" fill="#E6E6E6" stroke="#333333" stroke-width="0.75" stroke-miterlimit="10" width="59.05" height="145.912"/>
	<path fill="#EECF9C" stroke="#333333" stroke-width="0.75" stroke-miterlimit="10" d="M240.326,372.094h5.096v-103.92h-43.2v103.92
		h24.081l-0.016-0.695c0-7.748,6.281-14.029,14.03-14.029v14.569L240.326,372.094z"/>
	
		<rect x="303.833" y="226.654" fill="#E6E6E6" stroke="#666698" stroke-width="0.75" stroke-miterlimit="10" width="42.15" height="135.72"/>
	
		<rect x="396.92" y="226.654" fill="#E6E6E6" stroke="#666698" stroke-width="0.75" stroke-miterlimit="10" width="48.062" height="135.72"/>
	<g>
		<rect x="401.293" y="233.014" fill="#E7E6E6" width="27.609" height="34.56"/>
		<g>
			
				<rect x="401.293" y="233.014" fill="none" stroke="#6F7071" stroke-width="1.5" stroke-miterlimit="10" width="27.609" height="34.56"/>
			
				<line fill="none" stroke="#6F7071" stroke-width="1.5" stroke-miterlimit="10" x1="401.294" y1="233.014" x2="428.903" y2="267.574"/>
			
				<line fill="none" stroke="#6F7071" stroke-width="1.5" stroke-miterlimit="10" x1="401.294" y1="267.574" x2="428.903" y2="233.014"/>
		</g>
	</g>
	<g>
		<rect x="313.672" y="233.014" fill="#E7E6E6" width="27.609" height="34.56"/>
		<g>
			
				<rect x="313.672" y="233.014" fill="none" stroke="#6F7071" stroke-width="1.5" stroke-miterlimit="10" width="27.609" height="34.56"/>
			
				<line fill="none" stroke="#6F7071" stroke-width="1.5" stroke-miterlimit="10" x1="313.673" y1="233.014" x2="341.282" y2="267.574"/>
			
				<line fill="none" stroke="#6F7071" stroke-width="1.5" stroke-miterlimit="10" x1="313.673" y1="267.574" x2="341.282" y2="233.014"/>
		</g>
	</g>
	<g>
		<rect x="259.859" y="233.014" fill="#E7E6E6" width="27.609" height="39.12"/>
		<g>
			
				<rect x="259.859" y="233.014" fill="none" stroke="#6F7071" stroke-width="1.5" stroke-miterlimit="10" width="27.609" height="39.12"/>
			
				<line fill="none" stroke="#6F7071" stroke-width="1.5" stroke-miterlimit="10" x1="259.86" y1="233.014" x2="287.469" y2="272.134"/>
			
				<line fill="none" stroke="#6F7071" stroke-width="1.5" stroke-miterlimit="10" x1="259.86" y1="272.134" x2="287.469" y2="233.014"/>
		</g>
	</g>
	<g>
		<rect x="313.672" y="276.912" fill="#E7E6E6" width="27.609" height="34.561"/>
		<g>
			
				<rect x="313.672" y="276.912" fill="none" stroke="#6F7071" stroke-width="1.5" stroke-miterlimit="10" width="27.609" height="34.561"/>
			
				<line fill="none" stroke="#6F7071" stroke-width="1.5" stroke-miterlimit="10" x1="313.673" y1="276.912" x2="341.282" y2="311.472"/>
			
				<line fill="none" stroke="#6F7071" stroke-width="1.5" stroke-miterlimit="10" x1="313.673" y1="311.472" x2="341.282" y2="276.912"/>
		</g>
	</g>
	<g>
		<rect x="309.142" y="320.627" fill="#E7E6E6" width="32.139" height="34.561"/>
		<g>
			
				<rect x="309.142" y="320.627" fill="none" stroke="#6F7071" stroke-width="1.5" stroke-miterlimit="10" width="32.139" height="34.561"/>
			
				<line fill="none" stroke="#6F7071" stroke-width="1.5" stroke-miterlimit="10" x1="309.143" y1="320.627" x2="341.282" y2="355.188"/>
			
				<line fill="none" stroke="#6F7071" stroke-width="1.5" stroke-miterlimit="10" x1="309.143" y1="355.188" x2="341.282" y2="320.627"/>
		</g>
	</g>
	<g>
		<rect x="399.348" y="320.627" fill="#E7E6E6" width="27.609" height="34.561"/>
		<g>
			
				<rect x="399.348" y="320.627" fill="none" stroke="#6F7071" stroke-width="1.5" stroke-miterlimit="10" width="27.609" height="34.561"/>
			
				<line fill="none" stroke="#6F7071" stroke-width="1.5" stroke-miterlimit="10" x1="399.349" y1="320.627" x2="426.958" y2="355.188"/>
			
				<line fill="none" stroke="#6F7071" stroke-width="1.5" stroke-miterlimit="10" x1="399.349" y1="355.188" x2="426.958" y2="320.627"/>
		</g>
	</g>
	<g>
		<rect x="401.293" y="277.234" fill="#E7E6E6" width="27.609" height="34.56"/>
		<g>
			
				<rect x="401.293" y="277.234" fill="none" stroke="#6F7071" stroke-width="1.5" stroke-miterlimit="10" width="27.609" height="34.56"/>
			
				<line fill="none" stroke="#6F7071" stroke-width="1.5" stroke-miterlimit="10" x1="401.294" y1="277.234" x2="428.903" y2="311.794"/>
			
				<line fill="none" stroke="#6F7071" stroke-width="1.5" stroke-miterlimit="10" x1="401.294" y1="311.794" x2="428.903" y2="277.234"/>
		</g>
	</g>
	<rect x="204.216" y="297.198" fill="#EECF9C" width="19.114" height="5.371"/>
	
		<rect x="204.216" y="297.198" fill="none" stroke="#343333" stroke-width="0.75" stroke-miterlimit="10" width="19.114" height="5.371"/>
	<rect x="204.216" y="307.939" fill="#EECF9C" width="19.114" height="5.371"/>
	
		<rect x="204.216" y="307.939" fill="none" stroke="#343333" stroke-width="0.75" stroke-miterlimit="10" width="19.114" height="5.371"/>
	<rect x="204.216" y="302.568" fill="#EECF9C" width="19.114" height="5.371"/>
	
		<rect x="204.216" y="302.568" fill="none" stroke="#343333" stroke-width="0.75" stroke-miterlimit="10" width="19.114" height="5.371"/>
	<rect x="204.216" y="318.681" fill="#EECF9C" width="19.114" height="5.371"/>
	
		<rect x="204.216" y="318.681" fill="none" stroke="#343333" stroke-width="0.75" stroke-miterlimit="10" width="19.114" height="5.371"/>
	<rect x="204.216" y="313.31" fill="#EECF9C" width="19.115" height="5.371"/>
	
		<rect x="204.216" y="313.31" fill="none" stroke="#343333" stroke-width="0.75" stroke-miterlimit="10" width="19.115" height="5.371"/>
	<rect x="204.216" y="329.421" fill="#EECF9C" width="19.114" height="5.371"/>
	
		<rect x="204.216" y="329.421" fill="none" stroke="#343333" stroke-width="0.75" stroke-miterlimit="10" width="19.114" height="5.371"/>
	<rect x="204.216" y="324.051" fill="#EECF9C" width="19.114" height="5.371"/>
	
		<rect x="204.216" y="324.051" fill="none" stroke="#343333" stroke-width="0.75" stroke-miterlimit="10" width="19.114" height="5.371"/>
	<rect x="204.216" y="334.792" fill="#EECF9C" width="19.114" height="5.371"/>
	
		<rect x="204.216" y="334.792" fill="none" stroke="#343333" stroke-width="0.75" stroke-miterlimit="10" width="19.114" height="5.371"/>
	<rect x="204.217" y="345.535" fill="#EECF9C" width="19.114" height="5.37"/>
	
		<rect x="204.217" y="345.535" fill="none" stroke="#343333" stroke-width="0.75" stroke-miterlimit="10" width="19.114" height="5.37"/>
	<rect x="204.216" y="340.163" fill="#EECF9C" width="19.114" height="5.371"/>
	
		<rect x="204.216" y="340.163" fill="none" stroke="#343333" stroke-width="0.75" stroke-miterlimit="10" width="19.114" height="5.371"/>
	<rect x="224.649" y="297.198" fill="#EECF9C" width="19.114" height="5.371"/>
	
		<rect x="224.649" y="297.198" fill="none" stroke="#343333" stroke-width="0.75" stroke-miterlimit="10" width="19.114" height="5.371"/>
	<rect x="224.649" y="307.939" fill="#EECF9C" width="19.113" height="5.371"/>
	
		<rect x="224.649" y="307.939" fill="none" stroke="#343333" stroke-width="0.75" stroke-miterlimit="10" width="19.113" height="5.371"/>
	<rect x="224.649" y="302.568" fill="#EECF9C" width="19.113" height="5.371"/>
	
		<rect x="224.649" y="302.568" fill="none" stroke="#343333" stroke-width="0.75" stroke-miterlimit="10" width="19.113" height="5.371"/>
	<rect x="224.649" y="318.681" fill="#EECF9C" width="19.113" height="5.371"/>
	
		<rect x="224.649" y="318.681" fill="none" stroke="#343333" stroke-width="0.75" stroke-miterlimit="10" width="19.113" height="5.371"/>
	<rect x="224.649" y="313.31" fill="#EECF9C" width="19.114" height="5.371"/>
	
		<rect x="224.649" y="313.31" fill="none" stroke="#343333" stroke-width="0.75" stroke-miterlimit="10" width="19.114" height="5.371"/>
	<rect x="224.649" y="329.421" fill="#EECF9C" width="19.114" height="5.371"/>
	
		<rect x="224.649" y="329.421" fill="none" stroke="#343333" stroke-width="0.75" stroke-miterlimit="10" width="19.114" height="5.371"/>
	<rect x="224.65" y="324.051" fill="#EECF9C" width="19.113" height="5.37"/>
	
		<rect x="224.65" y="324.051" fill="none" stroke="#343333" stroke-width="0.75" stroke-miterlimit="10" width="19.113" height="5.37"/>
	<rect x="224.649" y="334.792" fill="#EECF9C" width="19.114" height="5.371"/>
	
		<rect x="224.649" y="334.792" fill="none" stroke="#343333" stroke-width="0.75" stroke-miterlimit="10" width="19.114" height="5.371"/>
	<rect x="224.649" y="345.535" fill="#EECF9C" width="19.114" height="5.37"/>
	
		<rect x="224.649" y="345.535" fill="none" stroke="#343333" stroke-width="0.75" stroke-miterlimit="10" width="19.114" height="5.37"/>
	<rect x="224.65" y="340.163" fill="#EECF9C" width="19.113" height="5.372"/>
	
		<rect x="224.65" y="340.163" fill="none" stroke="#343333" stroke-width="0.75" stroke-miterlimit="10" width="19.113" height="5.372"/>
	<path fill="#EECF9C" stroke="#333333" stroke-width="0.75" stroke-miterlimit="10" d="M740.747,371.939V357.37
		c7.749,0,14.03,6.281,14.03,14.029l-0.017-0.305h24.081v-102.92h-43.2v102.92h5.097L740.747,371.939z"/>
	<rect x="757.734" y="297.198" fill="#EECF9C" width="19.113" height="5.371"/>
	
		<rect x="757.734" y="297.198" fill="none" stroke="#343333" stroke-width="0.75" stroke-miterlimit="10" width="19.113" height="5.371"/>
	<rect x="757.733" y="307.939" fill="#EECF9C" width="19.113" height="5.371"/>
	
		<rect x="757.733" y="307.939" fill="none" stroke="#343333" stroke-width="0.75" stroke-miterlimit="10" width="19.113" height="5.371"/>
	<rect x="757.734" y="302.568" fill="#EECF9C" width="19.113" height="5.371"/>
	
		<rect x="757.734" y="302.568" fill="none" stroke="#343333" stroke-width="0.75" stroke-miterlimit="10" width="19.113" height="5.371"/>
	<rect x="757.734" y="318.681" fill="#EECF9C" width="19.113" height="5.371"/>
	
		<rect x="757.734" y="318.681" fill="none" stroke="#343333" stroke-width="0.75" stroke-miterlimit="10" width="19.113" height="5.371"/>
	<rect x="757.733" y="313.31" fill="#EECF9C" width="19.114" height="5.371"/>
	
		<rect x="757.733" y="313.31" fill="none" stroke="#343333" stroke-width="0.75" stroke-miterlimit="10" width="19.114" height="5.371"/>
	<rect x="757.734" y="329.421" fill="#EECF9C" width="19.113" height="5.371"/>
	
		<rect x="757.734" y="329.421" fill="none" stroke="#343333" stroke-width="0.75" stroke-miterlimit="10" width="19.113" height="5.371"/>
	<rect x="757.734" y="324.051" fill="#EECF9C" width="19.113" height="5.371"/>
	
		<rect x="757.734" y="324.051" fill="none" stroke="#343333" stroke-width="0.75" stroke-miterlimit="10" width="19.113" height="5.371"/>
	<rect x="757.734" y="334.792" fill="#EECF9C" width="19.113" height="5.371"/>
	
		<rect x="757.734" y="334.792" fill="none" stroke="#343333" stroke-width="0.75" stroke-miterlimit="10" width="19.113" height="5.371"/>
	<rect x="757.733" y="345.535" fill="#EECF9C" width="19.113" height="5.37"/>
	
		<rect x="757.733" y="345.535" fill="none" stroke="#343333" stroke-width="0.75" stroke-miterlimit="10" width="19.113" height="5.37"/>
	<rect x="757.734" y="340.163" fill="#EECF9C" width="19.113" height="5.371"/>
	
		<rect x="757.734" y="340.163" fill="none" stroke="#343333" stroke-width="0.75" stroke-miterlimit="10" width="19.113" height="5.371"/>
	<rect x="737.3" y="297.198" fill="#EECF9C" width="19.113" height="5.371"/>
	
		<rect x="737.3" y="297.198" fill="none" stroke="#343333" stroke-width="0.75" stroke-miterlimit="10" width="19.113" height="5.371"/>
	<rect x="737.3" y="307.939" fill="#EECF9C" width="19.113" height="5.371"/>
	
		<rect x="737.3" y="307.939" fill="none" stroke="#343333" stroke-width="0.75" stroke-miterlimit="10" width="19.113" height="5.371"/>
	<rect x="737.3" y="302.568" fill="#EECF9C" width="19.113" height="5.371"/>
	
		<rect x="737.3" y="302.568" fill="none" stroke="#343333" stroke-width="0.75" stroke-miterlimit="10" width="19.113" height="5.371"/>
	<rect x="737.3" y="318.681" fill="#EECF9C" width="19.113" height="5.371"/>
	
		<rect x="737.3" y="318.681" fill="none" stroke="#343333" stroke-width="0.75" stroke-miterlimit="10" width="19.113" height="5.371"/>
	<rect x="737.3" y="313.31" fill="#EECF9C" width="19.114" height="5.371"/>
	
		<rect x="737.3" y="313.31" fill="none" stroke="#343333" stroke-width="0.75" stroke-miterlimit="10" width="19.114" height="5.371"/>
	<rect x="737.3" y="329.421" fill="#EECF9C" width="19.113" height="5.371"/>
	
		<rect x="737.3" y="329.421" fill="none" stroke="#343333" stroke-width="0.75" stroke-miterlimit="10" width="19.113" height="5.371"/>
	<rect x="737.3" y="324.051" fill="#EECF9C" width="19.113" height="5.37"/>
	
		<rect x="737.3" y="324.051" fill="none" stroke="#343333" stroke-width="0.75" stroke-miterlimit="10" width="19.113" height="5.37"/>
	<rect x="737.3" y="334.792" fill="#EECF9C" width="19.113" height="5.371"/>
	
		<rect x="737.3" y="334.792" fill="none" stroke="#343333" stroke-width="0.75" stroke-miterlimit="10" width="19.113" height="5.371"/>
	<rect x="737.3" y="345.535" fill="#EECF9C" width="19.113" height="5.37"/>
	
		<rect x="737.3" y="345.535" fill="none" stroke="#343333" stroke-width="0.75" stroke-miterlimit="10" width="19.113" height="5.37"/>
	<rect x="737.3" y="340.163" fill="#EECF9C" width="19.113" height="5.372"/>
	
		<rect x="737.3" y="340.163" fill="none" stroke="#343333" stroke-width="0.75" stroke-miterlimit="10" width="19.113" height="5.372"/>
	<path fill="none" stroke="#333333" stroke-width="0.75" stroke-miterlimit="10" d="M262.821,371.677l0.009-0.155v-14.569
		c7.749,0,14.03,6.281,14.03,14.029l-0.016,0.695h0.198l-0.016-0.695c0-7.748,6.281-14.029,14.03-14.029v14.569l0.009,0.155"/>
</g>
<g id="Outline">
	
		<polyline fill="none" stroke="#000000" stroke-width="1.5" stroke-linecap="round" stroke-linejoin="round" stroke-miterlimit="10" points="
		256.222,14.734 773.182,14.734 773.182,27.214 785.902,27.214 785.902,30.574 821.783,30.574 821.783,46.294 869.422,46.294 
		869.422,59.134 881.902,59.134 881.902,62.734 917.182,62.734 917.182,78.454 970.462,78.454 970.462,126.454 986.302,126.454 
		986.302,174.334 1002.382,174.334 1002.382,222.334 1018.342,222.334 1018.342,270.094 1002.502,270.094 1002.502,318.094 
		1018.222,318.094 1018.222,365.734 1001.902,365.734 1001.902,413.974 986.302,413.974 986.302,461.974 970.583,461.974 
		970.583,509.734 917.182,509.734 917.182,525.934 869.663,525.934 869.663,541.894 821.783,541.894 821.783,557.974 
		773.422,557.974 773.422,573.934 255.798,573.934 255.798,558.814 207.982,558.814 207.982,541.894 160.462,541.894 
		160.462,526.294 112.103,526.294 112.103,509.854 59.422,509.854 59.422,461.974 43.583,461.974 43.583,413.974 27.623,413.974 
		27.623,365.974 11.782,365.974 11.782,318.334 27.382,318.334 27.382,270.094 11.782,270.094 11.782,222.334 27.142,222.334 
		27.142,173.948 43.583,173.948 43.583,126.454 59.422,126.454 59.422,78.574 112.462,78.574 112.462,62.254 147.862,62.254 
		147.862,59.374 160.702,59.374 160.702,46.654 208.583,46.654 208.583,30.574 243.742,30.574 243.742,27.214 256.462,27.214 
		256.462,15.334 	"/>
</g>
<g id="Cubes">
	<rect id="o2613-D" x="870.802" y="83.894" fill="#D2D2D2" stroke="#FFFFFF" width="38.76" height="33.5"/>
	<rect id="o2613-C" x="831.142" y="83.894" fill="#D2D2D2" stroke="#FFFFFF" width="39.66" height="33.5"/>
	<rect id="o2613-B" x="870.802" y="117.394" fill="#D2D2D2" stroke="#FFFFFF" width="38.76" height="35"/>
	<rect id="o2613-A" x="831.142" y="117.394" fill="#D2D2D2" stroke="#FFFFFF" width="39.66" height="35"/>
	<rect id="o2612" x="951.862" y="129.694" fill="#D2D2D2" stroke="#FFFFFF" width="31.74" height="43.8"/>
	<rect id="o2621" x="917.182" y="475.713" fill="#D2D2D2" stroke="#FFFFFF" width="53.4" height="33.48"/>
	<rect id="o2604" x="951.862" y="413.794" fill="#D2D2D2" stroke="#FFFFFF" width="31.74" height="44.699"/>
	<g>
	</g>
</g>
<g id="Posts">
	<rect x="147.682" y="59.318" fill="#414142" width="15.78" height="15.656"/>
	<rect x="243.652" y="27.214" fill="#414142" width="15.78" height="15.656"/>
	<rect x="290.542" y="14.346" fill="#414142" width="16.8" height="15.656"/>
	<rect x="434.422" y="14.346" fill="#414142" width="16.8" height="15.656"/>
	<rect x="578.302" y="14.346" fill="#414142" width="16.8" height="15.656"/>
	<rect x="721.943" y="14.706" fill="#414142" width="16.8" height="15.656"/>
	<rect x="770.212" y="27.186" fill="#414142" width="15.78" height="15.656"/>
	<rect x="866.211" y="59.346" fill="#414142" width="15.78" height="15.656"/>
	<rect x="954.892" y="112.774" fill="#414142" width="15.78" height="16.44"/>
	<rect x="986.452" y="208.954" fill="#414142" width="15.78" height="16.44"/>
	<rect x="986.092" y="363.034" fill="#414142" width="15.78" height="16.44"/>
	<rect x="955.072" y="459.274" fill="#414142" width="15.78" height="16.44"/>
	<rect x="866.212" y="510.274" fill="#414142" width="15.689" height="15.66"/>
	<rect x="770.257" y="542.583" fill="#414142" width="15.689" height="15.66"/>
	<rect x="721.943" y="558.247" fill="#414142" width="16.8" height="15.656"/>
	<rect x="578.302" y="558.366" fill="#414142" width="16.8" height="15.656"/>
	<rect x="434.422" y="558.425" fill="#414142" width="16.8" height="15.656"/>
	<rect x="290.602" y="558.425" fill="#414142" width="16.8" height="15.656"/>
	<rect x="243.742" y="542.586" fill="#414142" width="15.6" height="15.656"/>
	<rect x="147.862" y="510.667" fill="#414142" width="15.72" height="15.656"/>
	<rect x="59.422" y="458.614" fill="#414142" width="15.6" height="16.8"/>
	<rect x="27.382" y="362.854" fill="#414142" width="15.6" height="16.8"/>
	<rect x="27.502" y="208.654" fill="#414142" width="15.6" height="16.8"/>
	<rect x="59.422" y="112.474" fill="#414142" width="15.6" height="16.8"/>
	<rect x="437.182" y="215.734" fill="#414142" width="11.28" height="16.8"/>
	<rect x="294.082" y="215.734" fill="#414142" width="11.28" height="16.8"/>
	<rect x="580.728" y="215.734" fill="#414142" width="11.281" height="16.8"/>
	<rect x="437.182" y="354.554" fill="#414142" width="11.28" height="16.801"/>
	<rect x="580.728" y="354.554" fill="#414142" width="11.281" height="16.801"/>
	<rect x="329.182" y="219.794" fill="#414142" width="23.52" height="5.4"/>
	<rect x="389.656" y="219.794" fill="#414142" width="23.52" height="5.4"/>
	<rect x="329.182" y="362.793" fill="#414142" width="23.52" height="5.4"/>
	<rect x="389.656" y="362.793" fill="#414142" width="23.52" height="5.4"/>
</g>
<g id="labels">
	<g>
		<path fill="#333333" d="M839.698,102.894v-0.432l0.552-0.536c1.328-1.264,1.928-1.935,1.936-2.719
			c0-0.528-0.256-1.015-1.031-1.015c-0.473,0-0.864,0.24-1.104,0.439l-0.225-0.496c0.36-0.304,0.872-0.528,1.472-0.528
			c1.119,0,1.591,0.768,1.591,1.511c0,0.959-0.695,1.735-1.791,2.791l-0.416,0.384v0.016h2.335v0.583H839.698z"/>
		<path fill="#333333" d="M846.768,98.193c-0.144-0.008-0.328,0-0.527,0.032c-1.104,0.184-1.688,0.992-1.808,1.847h0.024
			c0.248-0.328,0.68-0.6,1.255-0.6c0.92,0,1.567,0.664,1.567,1.679c0,0.952-0.647,1.831-1.728,1.831
			c-1.111,0-1.839-0.863-1.839-2.215c0-1.023,0.368-1.831,0.88-2.343c0.432-0.424,1.008-0.688,1.663-0.768
			c0.208-0.032,0.384-0.04,0.512-0.04V98.193z M846.568,101.191c0-0.744-0.424-1.191-1.071-1.191c-0.424,0-0.815,0.264-1.007,0.64
			c-0.049,0.08-0.08,0.184-0.08,0.312c0.016,0.855,0.407,1.487,1.143,1.487C846.161,102.438,846.568,101.935,846.568,101.191z"/>
		<path fill="#333333" d="M849.432,98.353h-0.016l-0.903,0.488l-0.137-0.536l1.136-0.608h0.6v5.197h-0.68V98.353z"/>
		<path fill="#333333" d="M852.176,102.086c0.2,0.128,0.664,0.328,1.151,0.328c0.904,0,1.184-0.576,1.176-1.008
			c-0.008-0.728-0.664-1.039-1.344-1.039h-0.392V99.84h0.392c0.512,0,1.16-0.264,1.16-0.879c0-0.416-0.265-0.784-0.912-0.784
			c-0.416,0-0.815,0.184-1.039,0.344l-0.184-0.512c0.271-0.2,0.799-0.4,1.358-0.4c1.023,0,1.487,0.608,1.487,1.239
			c0,0.536-0.319,0.992-0.959,1.224v0.016c0.64,0.128,1.159,0.608,1.159,1.335c0,0.832-0.647,1.559-1.895,1.559
			c-0.584,0-1.096-0.184-1.352-0.352L852.176,102.086z"/>
		<path fill="#333333" d="M857.967,100.471v0.52h-1.975v-0.52H857.967z"/>
		<path fill="#333333" d="M862.695,102.718c-0.256,0.128-0.768,0.256-1.424,0.256c-1.519,0-2.662-0.959-2.662-2.727
			c0-1.687,1.144-2.831,2.814-2.831c0.672,0,1.095,0.144,1.279,0.24l-0.168,0.568c-0.264-0.128-0.64-0.224-1.088-0.224
			c-1.263,0-2.103,0.808-2.103,2.223c0,1.319,0.76,2.167,2.071,2.167c0.424,0,0.855-0.088,1.135-0.224L862.695,102.718z"/>
	</g>
	<g>
		<path fill="#333333" d="M878.16,102.894v-0.432l0.552-0.536c1.327-1.264,1.928-1.935,1.936-2.719c0-0.528-0.256-1.015-1.031-1.015
			c-0.472,0-0.864,0.24-1.104,0.439l-0.225-0.496c0.36-0.304,0.872-0.528,1.472-0.528c1.119,0,1.591,0.768,1.591,1.511
			c0,0.959-0.695,1.735-1.791,2.791l-0.415,0.384v0.016h2.334v0.583H878.16z"/>
		<path fill="#333333" d="M885.23,98.193c-0.144-0.008-0.328,0-0.527,0.032c-1.104,0.184-1.688,0.992-1.808,1.847h0.024
			c0.248-0.328,0.68-0.6,1.255-0.6c0.92,0,1.567,0.664,1.567,1.679c0,0.952-0.647,1.831-1.727,1.831c-1.112,0-1.84-0.863-1.84-2.215
			c0-1.023,0.368-1.831,0.88-2.343c0.432-0.424,1.008-0.688,1.663-0.768c0.208-0.032,0.384-0.04,0.512-0.04V98.193z M885.03,101.191
			c0-0.744-0.424-1.191-1.071-1.191c-0.424,0-0.815,0.264-1.007,0.64c-0.049,0.08-0.08,0.184-0.08,0.312
			c0.016,0.855,0.407,1.487,1.144,1.487C884.623,102.438,885.03,101.935,885.03,101.191z"/>
		<path fill="#333333" d="M887.894,98.353h-0.016l-0.903,0.488l-0.136-0.536l1.135-0.608h0.6v5.197h-0.68V98.353z"/>
		<path fill="#333333" d="M890.638,102.086c0.2,0.128,0.664,0.328,1.151,0.328c0.904,0,1.184-0.576,1.176-1.008
			c-0.008-0.728-0.664-1.039-1.344-1.039h-0.392V99.84h0.392c0.512,0,1.16-0.264,1.16-0.879c0-0.416-0.265-0.784-0.912-0.784
			c-0.415,0-0.815,0.184-1.039,0.344l-0.184-0.512c0.271-0.2,0.799-0.4,1.358-0.4c1.023,0,1.487,0.608,1.487,1.239
			c0,0.536-0.319,0.992-0.959,1.224v0.016c0.64,0.128,1.159,0.608,1.159,1.335c0,0.832-0.647,1.559-1.895,1.559
			c-0.584,0-1.096-0.184-1.352-0.352L890.638,102.086z"/>
		<path fill="#333333" d="M896.429,100.471v0.52h-1.975v-0.52H896.429z"/>
		<path fill="#333333" d="M897.278,97.577c0.424-0.064,0.928-0.112,1.479-0.112c0.999,0,1.711,0.232,2.183,0.672
			c0.479,0.44,0.76,1.063,0.76,1.935c0,0.879-0.271,1.599-0.775,2.095c-0.504,0.504-1.336,0.775-2.383,0.775
			c-0.496,0-0.911-0.024-1.264-0.064V97.577z M897.974,102.342c0.176,0.032,0.432,0.04,0.703,0.04c1.487,0,2.295-0.832,2.295-2.287
			c0.008-1.271-0.712-2.079-2.183-2.079c-0.36,0-0.632,0.032-0.815,0.072V102.342z"/>
	</g>
	<g>
		<path fill="#333333" d="M839.641,137.394v-0.432l0.552-0.536c1.328-1.264,1.928-1.935,1.936-2.719
			c0-0.528-0.256-1.015-1.031-1.015c-0.473,0-0.864,0.24-1.104,0.439l-0.225-0.496c0.36-0.304,0.872-0.528,1.472-0.528
			c1.119,0,1.591,0.768,1.591,1.511c0,0.959-0.695,1.735-1.791,2.791l-0.416,0.384v0.016h2.335v0.583H839.641z"/>
		<path fill="#333333" d="M846.711,132.693c-0.144-0.008-0.328,0-0.527,0.032c-1.104,0.184-1.688,0.992-1.808,1.847h0.024
			c0.248-0.328,0.68-0.6,1.255-0.6c0.92,0,1.567,0.664,1.567,1.679c0,0.952-0.647,1.831-1.728,1.831
			c-1.111,0-1.839-0.863-1.839-2.215c0-1.023,0.368-1.831,0.88-2.343c0.432-0.424,1.008-0.688,1.663-0.768
			c0.208-0.032,0.384-0.04,0.512-0.04V132.693z M846.511,135.691c0-0.744-0.424-1.191-1.071-1.191c-0.424,0-0.815,0.264-1.007,0.64
			c-0.049,0.08-0.08,0.184-0.08,0.312c0.016,0.855,0.407,1.487,1.143,1.487C846.104,136.938,846.511,136.435,846.511,135.691z"/>
		<path fill="#333333" d="M849.375,132.853h-0.016l-0.903,0.488l-0.137-0.536l1.136-0.608h0.6v5.197h-0.68V132.853z"/>
		<path fill="#333333" d="M852.12,136.586c0.2,0.128,0.664,0.328,1.151,0.328c0.904,0,1.184-0.576,1.176-1.008
			c-0.008-0.728-0.664-1.039-1.344-1.039h-0.392v-0.528h0.392c0.512,0,1.16-0.264,1.16-0.879c0-0.416-0.265-0.784-0.912-0.784
			c-0.416,0-0.815,0.184-1.039,0.344l-0.184-0.512c0.271-0.2,0.799-0.4,1.358-0.4c1.023,0,1.487,0.608,1.487,1.239
			c0,0.536-0.319,0.992-0.959,1.224v0.016c0.64,0.128,1.159,0.608,1.159,1.335c0,0.832-0.647,1.559-1.895,1.559
			c-0.584,0-1.096-0.184-1.352-0.352L852.12,136.586z"/>
		<path fill="#333333" d="M857.911,134.971v0.52h-1.975v-0.52H857.911z"/>
		<path fill="#333333" d="M859.599,135.699l-0.56,1.695h-0.72l1.831-5.389h0.839l1.839,5.389h-0.743l-0.576-1.695H859.599z
			 M861.366,135.155l-0.527-1.551c-0.12-0.352-0.2-0.671-0.28-0.983h-0.016c-0.08,0.32-0.168,0.647-0.272,0.976l-0.527,1.559
			H861.366z"/>
	</g>
	<g>
		<path fill="#333333" d="M878.656,137.394v-0.432l0.552-0.536c1.327-1.264,1.928-1.935,1.936-2.719
			c0-0.528-0.256-1.015-1.031-1.015c-0.472,0-0.864,0.24-1.104,0.439l-0.225-0.496c0.36-0.304,0.872-0.528,1.472-0.528
			c1.119,0,1.591,0.768,1.591,1.511c0,0.959-0.695,1.735-1.791,2.791l-0.415,0.384v0.016h2.334v0.583H878.656z"/>
		<path fill="#333333" d="M885.726,132.693c-0.144-0.008-0.328,0-0.527,0.032c-1.104,0.184-1.688,0.992-1.808,1.847h0.024
			c0.248-0.328,0.68-0.6,1.255-0.6c0.92,0,1.567,0.664,1.567,1.679c0,0.952-0.647,1.831-1.727,1.831c-1.112,0-1.84-0.863-1.84-2.215
			c0-1.023,0.368-1.831,0.88-2.343c0.432-0.424,1.008-0.688,1.663-0.768c0.208-0.032,0.384-0.04,0.512-0.04V132.693z
			 M885.526,135.691c0-0.744-0.424-1.191-1.071-1.191c-0.424,0-0.815,0.264-1.007,0.64c-0.049,0.08-0.08,0.184-0.08,0.312
			c0.016,0.855,0.407,1.487,1.144,1.487C885.119,136.938,885.526,136.435,885.526,135.691z"/>
		<path fill="#333333" d="M888.39,132.853h-0.016l-0.903,0.488l-0.136-0.536l1.135-0.608h0.6v5.197h-0.68V132.853z"/>
		<path fill="#333333" d="M891.134,136.586c0.2,0.128,0.664,0.328,1.151,0.328c0.904,0,1.184-0.576,1.176-1.008
			c-0.008-0.728-0.664-1.039-1.344-1.039h-0.392v-0.528h0.392c0.512,0,1.16-0.264,1.16-0.879c0-0.416-0.265-0.784-0.912-0.784
			c-0.415,0-0.815,0.184-1.039,0.344l-0.184-0.512c0.271-0.2,0.799-0.4,1.358-0.4c1.023,0,1.487,0.608,1.487,1.239
			c0,0.536-0.319,0.992-0.959,1.224v0.016c0.64,0.128,1.159,0.608,1.159,1.335c0,0.832-0.647,1.559-1.895,1.559
			c-0.584,0-1.096-0.184-1.352-0.352L891.134,136.586z"/>
		<path fill="#333333" d="M896.925,134.971v0.52h-1.975v-0.52H896.925z"/>
		<path fill="#333333" d="M897.774,132.077c0.304-0.064,0.784-0.112,1.271-0.112c0.695,0,1.144,0.12,1.479,0.392
			c0.279,0.208,0.447,0.527,0.447,0.951c0,0.52-0.344,0.976-0.911,1.184v0.016c0.512,0.128,1.111,0.551,1.111,1.351
			c0,0.464-0.184,0.815-0.456,1.08c-0.376,0.344-0.983,0.503-1.862,0.503c-0.48,0-0.848-0.032-1.08-0.064V132.077z M898.47,134.284
			h0.631c0.736,0,1.168-0.384,1.168-0.903c0-0.632-0.48-0.88-1.184-0.88c-0.32,0-0.504,0.024-0.615,0.048V134.284z M898.47,136.866
			c0.136,0.024,0.335,0.032,0.583,0.032c0.72,0,1.384-0.264,1.384-1.047c0-0.736-0.632-1.04-1.392-1.04h-0.575V136.866z"/>
	</g>
	<g>
		<path fill="#333333" d="M843.392,187.718c-0.256,0.128-0.768,0.256-1.424,0.256c-1.519,0-2.662-0.959-2.662-2.727
			c0-1.687,1.144-2.831,2.814-2.831c0.672,0,1.095,0.144,1.279,0.24l-0.168,0.568c-0.264-0.128-0.64-0.224-1.088-0.224
			c-1.263,0-2.103,0.808-2.103,2.223c0,1.319,0.76,2.167,2.071,2.167c0.424,0,0.855-0.088,1.135-0.224L843.392,187.718z"/>
		<path fill="#333333" d="M847.656,185.927c0,1.431-0.991,2.055-1.927,2.055c-1.048,0-1.855-0.768-1.855-1.991
			c0-1.295,0.848-2.055,1.919-2.055C846.904,183.936,847.656,184.744,847.656,185.927z M844.585,185.967
			c0,0.847,0.487,1.487,1.175,1.487c0.672,0,1.176-0.631,1.176-1.503c0-0.656-0.328-1.487-1.159-1.487
			C844.945,184.464,844.585,185.231,844.585,185.967z"/>
		<path fill="#333333" d="M850.936,187.894v-3.334h-1.623v3.334h-0.696v-3.334h-0.543v-0.536h0.543v-0.128
			c0-0.543,0.128-1.015,0.432-1.319c0.225-0.224,0.544-0.36,0.976-0.36c0.225,0,0.433,0.072,0.552,0.136l-0.144,0.52
			c-0.104-0.048-0.256-0.096-0.416-0.096c-0.552,0-0.703,0.472-0.703,1.08v0.167h1.623v-0.184c0-0.544,0.128-1.04,0.455-1.352
			c0.265-0.256,0.616-0.359,0.936-0.359c0.256,0,0.464,0.056,0.6,0.112l-0.088,0.543c-0.111-0.048-0.247-0.088-0.455-0.088
			c-0.592,0-0.752,0.528-0.752,1.12v0.208h0.936v0.536h-0.928v3.334H850.936z"/>
		<path fill="#333333" d="M853.498,186.087c0.016,0.952,0.623,1.343,1.327,1.343c0.504,0,0.808-0.088,1.071-0.2l0.12,0.503
			c-0.248,0.112-0.672,0.24-1.287,0.24c-1.191,0-1.903-0.784-1.903-1.951c0-1.167,0.688-2.087,1.815-2.087
			c1.263,0,1.599,1.111,1.599,1.823c0,0.144-0.016,0.256-0.023,0.328H853.498z M855.56,185.583c0.008-0.448-0.184-1.144-0.976-1.144
			c-0.711,0-1.023,0.656-1.079,1.144H855.56z"/>
		<path fill="#333333" d="M857.505,186.087c0.016,0.952,0.623,1.343,1.327,1.343c0.504,0,0.808-0.088,1.071-0.2l0.12,0.503
			c-0.248,0.112-0.672,0.24-1.287,0.24c-1.191,0-1.903-0.784-1.903-1.951c0-1.167,0.688-2.087,1.815-2.087
			c1.263,0,1.599,1.111,1.599,1.823c0,0.144-0.016,0.256-0.023,0.328H857.505z M859.568,185.583
			c0.008-0.448-0.184-1.144-0.976-1.144c-0.711,0-1.023,0.656-1.079,1.144H859.568z"/>
		<path fill="#333333" d="M860.53,188.214l2.23-5.797h0.544l-2.239,5.797H860.53z"/>
	</g>
	<g>
		<path fill="#333333" d="M846.92,196.368c-0.256,0.128-0.768,0.256-1.424,0.256c-1.519,0-2.662-0.959-2.662-2.727
			c0-1.687,1.144-2.831,2.814-2.831c0.671,0,1.095,0.144,1.279,0.24l-0.168,0.568c-0.264-0.128-0.64-0.224-1.088-0.224
			c-1.263,0-2.103,0.808-2.103,2.223c0,1.319,0.76,2.167,2.071,2.167c0.423,0,0.855-0.088,1.135-0.224L846.92,196.368z"/>
		<path fill="#333333" d="M851.184,194.577c0,1.431-0.991,2.055-1.927,2.055c-1.048,0-1.855-0.768-1.855-1.991
			c0-1.295,0.848-2.055,1.919-2.055C850.432,192.585,851.184,193.393,851.184,194.577z M848.114,194.617
			c0,0.847,0.487,1.487,1.175,1.487c0.672,0,1.176-0.631,1.176-1.503c0-0.656-0.328-1.487-1.159-1.487
			C848.473,193.113,848.114,193.881,848.114,194.617z"/>
		<path fill="#333333" d="M852.074,193.937c0-0.496-0.017-0.896-0.032-1.264h0.632l0.031,0.664h0.017
			c0.288-0.472,0.743-0.752,1.375-0.752c0.936,0,1.64,0.792,1.64,1.967c0,1.391-0.848,2.079-1.76,2.079
			c-0.512,0-0.959-0.224-1.191-0.607h-0.016v2.103h-0.695V193.937z M852.769,194.968c0,0.104,0.016,0.2,0.032,0.288
			c0.128,0.487,0.552,0.823,1.056,0.823c0.743,0,1.175-0.607,1.175-1.495c0-0.775-0.407-1.439-1.151-1.439
			c-0.479,0-0.928,0.344-1.063,0.872c-0.023,0.088-0.048,0.191-0.048,0.288V194.968z"/>
		<path fill="#333333" d="M856.826,192.673l0.848,2.287c0.088,0.256,0.184,0.56,0.247,0.792h0.017
			c0.071-0.232,0.151-0.528,0.248-0.808l0.768-2.271h0.743l-1.056,2.759c-0.504,1.327-0.848,2.007-1.327,2.423
			c-0.344,0.304-0.688,0.423-0.863,0.456l-0.176-0.592c0.176-0.056,0.407-0.168,0.615-0.344c0.192-0.152,0.432-0.424,0.592-0.784
			c0.032-0.072,0.056-0.128,0.056-0.168s-0.016-0.096-0.048-0.184l-1.431-3.566H856.826z"/>
	</g>
	<g>
		<path fill="#333333" d="M843.301,205.193v-0.432l0.552-0.536c1.328-1.264,1.928-1.935,1.936-2.719
			c0-0.528-0.256-1.015-1.031-1.015c-0.473,0-0.864,0.24-1.104,0.439l-0.225-0.496c0.36-0.304,0.872-0.528,1.472-0.528
			c1.119,0,1.591,0.768,1.591,1.511c0,0.959-0.695,1.735-1.791,2.791l-0.416,0.384v0.016h2.335v0.583H843.301z"/>
		<path fill="#333333" d="M850.372,200.492c-0.144-0.008-0.328,0-0.527,0.032c-1.104,0.184-1.688,0.992-1.808,1.847h0.024
			c0.248-0.328,0.68-0.6,1.255-0.6c0.92,0,1.567,0.664,1.567,1.679c0,0.952-0.647,1.831-1.728,1.831
			c-1.111,0-1.839-0.863-1.839-2.215c0-1.023,0.368-1.831,0.88-2.343c0.432-0.424,1.008-0.688,1.663-0.768
			c0.208-0.032,0.384-0.04,0.512-0.04V200.492z M850.171,203.49c0-0.744-0.424-1.191-1.071-1.191c-0.424,0-0.815,0.264-1.007,0.64
			c-0.049,0.08-0.08,0.184-0.08,0.312c0.016,0.855,0.407,1.487,1.143,1.487C849.764,204.737,850.171,204.233,850.171,203.49z"/>
		<path fill="#333333" d="M853.036,200.651h-0.016l-0.903,0.488l-0.137-0.536l1.136-0.608h0.6v5.197h-0.68V200.651z"/>
		<path fill="#333333" d="M857.787,205.193v-1.415h-2.414v-0.464l2.318-3.318h0.76v3.23h0.728v0.552h-0.728v1.415H857.787z
			 M857.787,203.226v-1.735c0-0.271,0.009-0.543,0.024-0.815h-0.024c-0.159,0.304-0.287,0.528-0.432,0.768l-1.271,1.767v0.016
			H857.787z"/>
	</g>
	<g>
		<path fill="#333333" d="M883.051,193.894v-0.432l0.552-0.536c1.328-1.264,1.928-1.935,1.936-2.719
			c0-0.528-0.256-1.015-1.031-1.015c-0.473,0-0.864,0.24-1.104,0.439l-0.225-0.496c0.36-0.304,0.872-0.528,1.472-0.528
			c1.119,0,1.591,0.768,1.591,1.511c0,0.959-0.695,1.735-1.791,2.791l-0.416,0.384v0.016h2.335v0.583H883.051z"/>
		<path fill="#333333" d="M890.122,189.193c-0.144-0.008-0.328,0-0.527,0.032c-1.104,0.184-1.688,0.992-1.808,1.847h0.024
			c0.248-0.328,0.68-0.6,1.255-0.6c0.92,0,1.567,0.664,1.567,1.679c0,0.952-0.647,1.831-1.728,1.831
			c-1.111,0-1.839-0.863-1.839-2.215c0-1.023,0.368-1.831,0.88-2.343c0.432-0.424,1.008-0.688,1.663-0.768
			c0.208-0.032,0.384-0.04,0.512-0.04V189.193z M889.921,192.191c0-0.744-0.424-1.191-1.071-1.191c-0.424,0-0.815,0.264-1.007,0.64
			c-0.049,0.08-0.08,0.184-0.08,0.312c0.016,0.855,0.407,1.487,1.143,1.487C889.514,193.438,889.921,192.935,889.921,192.191z"/>
		<path fill="#333333" d="M892.786,189.353h-0.016l-0.903,0.488l-0.137-0.536l1.136-0.608h0.6v5.197h-0.68V189.353z"/>
		<path fill="#333333" d="M898.816,191.24c0,1.767-0.655,2.742-1.807,2.742c-1.016,0-1.703-0.951-1.719-2.67
			c0-1.743,0.751-2.703,1.807-2.703C898.193,188.609,898.816,189.584,898.816,191.24z M895.994,191.319
			c0,1.352,0.416,2.119,1.056,2.119c0.72,0,1.063-0.84,1.063-2.167c0-1.279-0.328-2.119-1.056-2.119
			C896.442,189.153,895.994,189.904,895.994,191.319z"/>
	</g>
	<g>
		<path fill="#333333" d="M883.051,244.644v-0.432l0.552-0.536c1.328-1.264,1.928-1.935,1.936-2.719
			c0-0.528-0.256-1.015-1.031-1.015c-0.473,0-0.864,0.24-1.104,0.439l-0.225-0.496c0.36-0.304,0.872-0.528,1.472-0.528
			c1.119,0,1.591,0.768,1.591,1.511c0,0.959-0.695,1.735-1.791,2.791l-0.416,0.384v0.016h2.335v0.583H883.051z"/>
		<path fill="#333333" d="M890.122,239.943c-0.144-0.008-0.328,0-0.527,0.032c-1.104,0.184-1.688,0.992-1.808,1.847h0.024
			c0.248-0.328,0.68-0.6,1.255-0.6c0.92,0,1.567,0.664,1.567,1.679c0,0.952-0.647,1.831-1.728,1.831
			c-1.111,0-1.839-0.863-1.839-2.215c0-1.023,0.368-1.831,0.88-2.343c0.432-0.424,1.008-0.688,1.663-0.768
			c0.208-0.032,0.384-0.04,0.512-0.04V239.943z M889.921,242.941c0-0.744-0.424-1.191-1.071-1.191c-0.424,0-0.815,0.264-1.007,0.64
			c-0.049,0.08-0.08,0.184-0.08,0.312c0.016,0.855,0.407,1.487,1.143,1.487C889.514,244.188,889.921,243.685,889.921,242.941z"/>
		<path fill="#333333" d="M894.712,241.99c0,1.767-0.655,2.742-1.807,2.742c-1.016,0-1.703-0.951-1.719-2.67
			c0-1.743,0.751-2.703,1.807-2.703C894.089,239.359,894.712,240.334,894.712,241.99z M891.89,242.069
			c0,1.352,0.416,2.119,1.056,2.119c0.72,0,1.063-0.84,1.063-2.167c0-1.279-0.328-2.119-1.056-2.119
			C892.338,239.903,891.89,240.654,891.89,242.069z"/>
		<path fill="#333333" d="M895.298,243.325c0-0.656,0.392-1.119,1.031-1.391l-0.008-0.024c-0.576-0.272-0.823-0.72-0.823-1.167
			c0-0.824,0.695-1.383,1.606-1.383c1.008,0,1.512,0.632,1.512,1.279c0,0.44-0.216,0.912-0.855,1.215v0.024
			c0.647,0.256,1.047,0.712,1.047,1.343c0,0.904-0.775,1.511-1.767,1.511C895.954,244.732,895.298,244.084,895.298,243.325z
			 M898.097,243.293c0-0.632-0.44-0.936-1.144-1.136c-0.608,0.176-0.936,0.576-0.936,1.072c-0.024,0.527,0.376,0.991,1.039,0.991
			C897.689,244.22,898.097,243.829,898.097,243.293z M896.162,240.694c0,0.52,0.392,0.799,0.991,0.959
			c0.448-0.152,0.792-0.472,0.792-0.943c0-0.416-0.248-0.848-0.88-0.848C896.482,239.863,896.162,240.247,896.162,240.694z"/>
	</g>
	<g>
		<path fill="#333333" d="M842.391,244.644v-0.432l0.552-0.536c1.328-1.264,1.928-1.935,1.936-2.719
			c0-0.528-0.256-1.015-1.031-1.015c-0.473,0-0.864,0.24-1.104,0.439l-0.225-0.496c0.36-0.304,0.872-0.528,1.472-0.528
			c1.119,0,1.591,0.768,1.591,1.511c0,0.959-0.695,1.735-1.791,2.791l-0.416,0.384v0.016h2.335v0.583H842.391z"/>
		<path fill="#333333" d="M849.461,239.943c-0.144-0.008-0.328,0-0.527,0.032c-1.104,0.184-1.688,0.992-1.808,1.847h0.024
			c0.248-0.328,0.68-0.6,1.255-0.6c0.92,0,1.567,0.664,1.567,1.679c0,0.952-0.647,1.831-1.728,1.831
			c-1.111,0-1.839-0.863-1.839-2.215c0-1.023,0.368-1.831,0.88-2.343c0.432-0.424,1.008-0.688,1.663-0.768
			c0.208-0.032,0.384-0.04,0.512-0.04V239.943z M849.261,242.941c0-0.744-0.424-1.191-1.071-1.191c-0.424,0-0.815,0.264-1.007,0.64
			c-0.049,0.08-0.08,0.184-0.08,0.312c0.016,0.855,0.407,1.487,1.143,1.487C848.854,244.188,849.261,243.685,849.261,242.941z"/>
		<path fill="#333333" d="M852.125,240.103h-0.016l-0.903,0.488l-0.137-0.536l1.136-0.608h0.6v5.197h-0.68V240.103z"/>
		<path fill="#333333" d="M857.668,239.943c-0.144-0.008-0.328,0-0.527,0.032c-1.104,0.184-1.688,0.992-1.808,1.847h0.024
			c0.248-0.328,0.68-0.6,1.255-0.6c0.92,0,1.567,0.664,1.567,1.679c0,0.952-0.647,1.831-1.728,1.831
			c-1.111,0-1.839-0.863-1.839-2.215c0-1.023,0.368-1.831,0.88-2.343c0.432-0.424,1.008-0.688,1.663-0.768
			c0.208-0.032,0.384-0.04,0.512-0.04V239.943z M857.468,242.941c0-0.744-0.424-1.191-1.071-1.191c-0.424,0-0.815,0.264-1.007,0.64
			c-0.049,0.08-0.08,0.184-0.08,0.312c0.016,0.855,0.407,1.487,1.143,1.487C857.061,244.188,857.468,243.685,857.468,242.941z"/>
	</g>
	<g>
		<path fill="#333333" d="M859.053,345.024v-0.432l0.552-0.536c1.328-1.264,1.928-1.935,1.936-2.719
			c0-0.527-0.256-1.015-1.031-1.015c-0.473,0-0.864,0.239-1.104,0.439l-0.225-0.495c0.36-0.305,0.872-0.528,1.472-0.528
			c1.119,0,1.591,0.768,1.591,1.511c0,0.96-0.695,1.735-1.791,2.791l-0.416,0.384v0.017h2.335v0.583H859.053z"/>
		<path fill="#333333" d="M866.124,340.323c-0.144-0.009-0.328,0-0.527,0.032c-1.104,0.184-1.688,0.991-1.808,1.847h0.024
			c0.248-0.328,0.68-0.6,1.255-0.6c0.92,0,1.567,0.663,1.567,1.679c0,0.951-0.647,1.831-1.728,1.831
			c-1.111,0-1.839-0.863-1.839-2.215c0-1.023,0.368-1.831,0.88-2.343c0.432-0.424,1.008-0.688,1.663-0.768
			c0.208-0.031,0.384-0.04,0.512-0.04V340.323z M865.923,343.321c0-0.743-0.424-1.191-1.071-1.191c-0.424,0-0.815,0.265-1.007,0.64
			c-0.049,0.08-0.08,0.184-0.08,0.313c0.016,0.855,0.407,1.486,1.143,1.486C865.516,344.568,865.923,344.064,865.923,343.321z"/>
		<path fill="#333333" d="M867.26,345.024v-0.432l0.552-0.536c1.328-1.264,1.928-1.935,1.936-2.719c0-0.527-0.256-1.015-1.031-1.015
			c-0.473,0-0.864,0.239-1.104,0.439l-0.225-0.495c0.36-0.305,0.872-0.528,1.472-0.528c1.119,0,1.591,0.768,1.591,1.511
			c0,0.96-0.695,1.735-1.791,2.791l-0.416,0.384v0.017h2.335v0.583H867.26z"/>
		<path fill="#333333" d="M874.818,342.37c0,1.767-0.655,2.742-1.807,2.742c-1.016,0-1.703-0.951-1.719-2.671
			c0-1.742,0.751-2.702,1.807-2.702C874.195,339.739,874.818,340.714,874.818,342.37z M871.996,342.449
			c0,1.352,0.416,2.119,1.056,2.119c0.72,0,1.063-0.84,1.063-2.166c0-1.279-0.328-2.119-1.056-2.119
			C872.444,340.283,871.996,341.035,871.996,342.449z"/>
	</g>
	<g>
		<path fill="#333333" d="M769.89,486.621c0.312,0.191,0.768,0.352,1.247,0.352c0.712,0,1.128-0.375,1.128-0.919
			c0-0.504-0.288-0.792-1.016-1.071c-0.88-0.313-1.424-0.768-1.424-1.527c0-0.84,0.696-1.463,1.743-1.463
			c0.552,0,0.952,0.127,1.191,0.264l-0.191,0.567c-0.176-0.096-0.536-0.256-1.023-0.256c-0.735,0-1.016,0.44-1.016,0.808
			c0,0.504,0.328,0.752,1.071,1.039c0.912,0.352,1.375,0.792,1.375,1.584c0,0.831-0.615,1.551-1.887,1.551
			c-0.52,0-1.087-0.152-1.375-0.344L769.89,486.621z"/>
		<path fill="#333333" d="M774.73,482.487v1.111h1.007v0.536h-1.007v2.087c0,0.479,0.136,0.751,0.527,0.751
			c0.184,0,0.319-0.023,0.408-0.048l0.031,0.528c-0.136,0.056-0.352,0.096-0.623,0.096c-0.328,0-0.592-0.104-0.76-0.296
			c-0.2-0.208-0.272-0.552-0.272-1.007v-2.111h-0.6v-0.536h0.6v-0.927L774.73,482.487z"/>
		<path fill="#333333" d="M778.673,487.468l-0.056-0.488h-0.024c-0.216,0.305-0.632,0.576-1.184,0.576
			c-0.783,0-1.183-0.552-1.183-1.111c0-0.936,0.831-1.447,2.326-1.439v-0.08c0-0.319-0.088-0.895-0.88-0.895
			c-0.359,0-0.735,0.111-1.007,0.287l-0.16-0.464c0.32-0.208,0.784-0.344,1.271-0.344c1.184,0,1.471,0.808,1.471,1.583v1.447
			c0,0.336,0.017,0.664,0.064,0.928H778.673z M778.57,485.494c-0.768-0.016-1.64,0.119-1.64,0.871c0,0.456,0.304,0.672,0.664,0.672
			c0.503,0,0.823-0.32,0.936-0.648c0.023-0.071,0.04-0.151,0.04-0.223V485.494z"/>
		<path fill="#333333" d="M782.777,487.468v-3.334h-1.623v3.334h-0.696v-3.334h-0.543v-0.536h0.543v-0.128
			c0-0.543,0.128-1.016,0.433-1.318c0.224-0.225,0.543-0.36,0.975-0.36c0.225,0,0.432,0.071,0.552,0.136l-0.144,0.52
			c-0.104-0.048-0.256-0.096-0.416-0.096c-0.552,0-0.703,0.472-0.703,1.08v0.167h1.623v-0.184c0-0.544,0.128-1.04,0.455-1.352
			c0.265-0.256,0.616-0.359,0.936-0.359c0.256,0,0.464,0.056,0.6,0.112l-0.088,0.543c-0.111-0.048-0.247-0.088-0.455-0.088
			c-0.592,0-0.752,0.527-0.752,1.119v0.208h0.936v0.536h-0.928v3.334H782.777z"/>
		<path fill="#333333" d="M786.769,482.08h0.696v4.805h2.303v0.584h-2.999V482.08z"/>
		<path fill="#333333" d="M793.913,485.501c0,1.432-0.991,2.055-1.927,2.055c-1.048,0-1.855-0.768-1.855-1.99
			c0-1.296,0.848-2.056,1.919-2.056C793.161,483.51,793.913,484.318,793.913,485.501z M790.842,485.542
			c0,0.847,0.487,1.487,1.175,1.487c0.672,0,1.176-0.632,1.176-1.504c0-0.655-0.328-1.486-1.159-1.486
			C791.202,484.039,790.842,484.806,790.842,485.542z"/>
		<path fill="#333333" d="M798.041,486.413c0,0.399,0.008,0.752,0.031,1.056h-0.623l-0.04-0.632h-0.017
			c-0.184,0.312-0.591,0.72-1.279,0.72c-0.607,0-1.335-0.336-1.335-1.695v-2.263h0.704v2.144c0,0.735,0.224,1.23,0.863,1.23
			c0.472,0,0.8-0.328,0.928-0.639c0.04-0.104,0.063-0.232,0.063-0.36v-2.375h0.704V486.413z"/>
		<path fill="#333333" d="M799.21,484.646c0-0.4-0.008-0.728-0.032-1.048h0.624l0.039,0.64h0.017
			c0.191-0.367,0.64-0.728,1.279-0.728c0.535,0,1.367,0.319,1.367,1.647v2.311H801.8v-2.23c0-0.624-0.231-1.144-0.896-1.144
			c-0.463,0-0.823,0.327-0.943,0.72c-0.031,0.088-0.048,0.207-0.048,0.328v2.326h-0.703V484.646z"/>
		<path fill="#333333" d="M806.985,483.598c-0.017,0.28-0.032,0.592-0.032,1.063v2.247c0,0.888-0.176,1.431-0.552,1.767
			c-0.376,0.352-0.919,0.464-1.407,0.464c-0.464,0-0.976-0.112-1.287-0.319l0.176-0.536c0.256,0.16,0.656,0.304,1.136,0.304
			c0.72,0,1.247-0.375,1.247-1.352v-0.432h-0.016c-0.216,0.36-0.632,0.648-1.231,0.648c-0.96,0-1.647-0.816-1.647-1.887
			c0-1.313,0.855-2.056,1.743-2.056c0.672,0,1.039,0.353,1.207,0.672h0.017l0.031-0.584H806.985z M806.257,485.125
			c0-0.12-0.008-0.224-0.04-0.319c-0.128-0.408-0.472-0.744-0.983-0.744c-0.672,0-1.151,0.568-1.151,1.463
			c0,0.76,0.384,1.392,1.144,1.392c0.432,0,0.823-0.272,0.975-0.72c0.04-0.119,0.057-0.256,0.057-0.375V485.125z"/>
		<path fill="#333333" d="M808.514,485.662c0.016,0.951,0.624,1.343,1.327,1.343c0.504,0,0.808-0.088,1.071-0.2l0.12,0.504
			c-0.248,0.112-0.672,0.24-1.287,0.24c-1.191,0-1.903-0.783-1.903-1.951c0-1.167,0.688-2.087,1.815-2.087
			c1.263,0,1.599,1.111,1.599,1.823c0,0.145-0.016,0.256-0.023,0.328H808.514z M810.577,485.158
			c0.008-0.447-0.184-1.144-0.976-1.144c-0.711,0-1.023,0.655-1.079,1.144H810.577z"/>
	</g>
	<g>
		<path fill="#333333" d="M587.372,484.718c0,1.854-1.127,2.838-2.502,2.838c-1.424,0-2.423-1.104-2.423-2.734
			c0-1.711,1.063-2.83,2.502-2.83C586.42,481.992,587.372,483.119,587.372,484.718z M583.19,484.806c0,1.15,0.624,2.183,1.72,2.183
			c1.103,0,1.727-1.016,1.727-2.239c0-1.071-0.56-2.19-1.719-2.19C583.766,482.559,583.19,483.623,583.19,484.806z"/>
		<path fill="#333333" d="M593.227,482.479c-0.176-0.112-0.464-0.208-0.783-0.208c-0.743,0-0.968,0.52-0.968,1.136v0.191h2.255v3.87
			h-0.703v-3.334h-1.544v3.334h-0.703v-3.334h-1.631v3.334h-0.696v-3.334h-0.543v-0.536h0.543v-0.144
			c0-0.488,0.128-0.959,0.464-1.287c0.225-0.232,0.56-0.376,0.992-0.376c0.264,0,0.535,0.096,0.679,0.168l-0.191,0.52
			c-0.12-0.063-0.304-0.136-0.487-0.136c-0.225,0-0.385,0.08-0.504,0.207c-0.192,0.209-0.256,0.561-0.256,0.896v0.151h1.631v-0.208
			c0-1.023,0.607-1.687,1.695-1.687c0.352,0,0.751,0.104,0.959,0.247L593.227,482.479z"/>
		<path fill="#333333" d="M597.66,487.324c-0.184,0.097-0.592,0.225-1.111,0.225c-1.167,0-1.927-0.791-1.927-1.975
			c0-1.191,0.815-2.055,2.079-2.055c0.416,0,0.783,0.104,0.976,0.199l-0.16,0.544c-0.168-0.097-0.432-0.185-0.815-0.185
			c-0.888,0-1.367,0.656-1.367,1.464c0,0.896,0.575,1.447,1.343,1.447c0.4,0,0.664-0.104,0.864-0.192L597.66,487.324z"/>
		<path fill="#333333" d="M598.83,485.662c0.016,0.951,0.623,1.343,1.327,1.343c0.504,0,0.808-0.088,1.071-0.2l0.12,0.504
			c-0.248,0.112-0.672,0.24-1.287,0.24c-1.191,0-1.903-0.783-1.903-1.951c0-1.167,0.688-2.087,1.815-2.087
			c1.263,0,1.599,1.111,1.599,1.823c0,0.145-0.016,0.256-0.023,0.328H598.83z M600.892,485.158c0.008-0.447-0.184-1.144-0.976-1.144
			c-0.711,0-1.023,0.655-1.079,1.144H600.892z"/>
		<path fill="#333333" d="M604.07,486.621c0.312,0.191,0.768,0.352,1.247,0.352c0.712,0,1.128-0.375,1.128-0.919
			c0-0.504-0.288-0.792-1.016-1.071c-0.88-0.313-1.424-0.768-1.424-1.527c0-0.84,0.696-1.463,1.743-1.463
			c0.552,0,0.952,0.127,1.191,0.264l-0.191,0.567c-0.176-0.096-0.536-0.256-1.023-0.256c-0.735,0-1.016,0.44-1.016,0.808
			c0,0.504,0.328,0.752,1.071,1.039c0.912,0.352,1.375,0.792,1.375,1.584c0,0.831-0.615,1.551-1.887,1.551
			c-0.52,0-1.087-0.152-1.375-0.344L604.07,486.621z"/>
		<path fill="#333333" d="M608.526,485.662c0.016,0.951,0.624,1.343,1.327,1.343c0.504,0,0.808-0.088,1.071-0.2l0.12,0.504
			c-0.248,0.112-0.672,0.24-1.287,0.24c-1.191,0-1.903-0.783-1.903-1.951c0-1.167,0.688-2.087,1.815-2.087
			c1.263,0,1.599,1.111,1.599,1.823c0,0.145-0.016,0.256-0.023,0.328H608.526z M610.588,485.158
			c0.008-0.447-0.184-1.144-0.976-1.144c-0.711,0-1.023,0.655-1.079,1.144H610.588z"/>
		<path fill="#333333" d="M612.142,484.806c0-0.456-0.008-0.848-0.032-1.208h0.615l0.024,0.76h0.032
			c0.176-0.52,0.6-0.848,1.071-0.848c0.08,0,0.136,0.009,0.199,0.024v0.664c-0.071-0.017-0.144-0.024-0.239-0.024
			c-0.496,0-0.848,0.376-0.943,0.903c-0.017,0.096-0.032,0.208-0.032,0.328v2.063h-0.695V484.806z"/>
		<path fill="#333333" d="M615.23,483.598l0.76,2.175c0.128,0.352,0.231,0.672,0.312,0.992h0.024
			c0.088-0.32,0.199-0.641,0.327-0.992l0.752-2.175h0.735l-1.519,3.87h-0.672l-1.472-3.87H615.23z"/>
		<path fill="#333333" d="M619.589,482.511c0.008,0.24-0.168,0.432-0.447,0.432c-0.248,0-0.424-0.191-0.424-0.432
			c0-0.248,0.184-0.439,0.439-0.439C619.421,482.072,619.589,482.263,619.589,482.511z M618.806,487.468v-3.87h0.703v3.87H618.806z"
			/>
		<path fill="#333333" d="M623.436,487.324c-0.184,0.097-0.591,0.225-1.111,0.225c-1.167,0-1.927-0.791-1.927-1.975
			c0-1.191,0.815-2.055,2.079-2.055c0.416,0,0.783,0.104,0.976,0.199l-0.16,0.544c-0.168-0.097-0.432-0.185-0.815-0.185
			c-0.888,0-1.367,0.656-1.367,1.464c0,0.896,0.575,1.447,1.343,1.447c0.4,0,0.664-0.104,0.864-0.192L623.436,487.324z"/>
		<path fill="#333333" d="M624.606,485.662c0.016,0.951,0.624,1.343,1.327,1.343c0.504,0,0.808-0.088,1.071-0.2l0.12,0.504
			c-0.248,0.112-0.672,0.24-1.287,0.24c-1.191,0-1.903-0.783-1.903-1.951c0-1.167,0.688-2.087,1.815-2.087
			c1.263,0,1.599,1.111,1.599,1.823c0,0.145-0.016,0.256-0.023,0.328H624.606z M626.668,485.158
			c0.008-0.447-0.184-1.144-0.976-1.144c-0.711,0-1.023,0.655-1.079,1.144H626.668z"/>
		<path fill="#333333" d="M628.125,486.749c0.208,0.136,0.576,0.28,0.928,0.28c0.512,0,0.752-0.256,0.752-0.576
			c0-0.336-0.2-0.52-0.72-0.711c-0.695-0.248-1.023-0.633-1.023-1.096c0-0.624,0.504-1.136,1.335-1.136
			c0.392,0,0.735,0.112,0.952,0.24l-0.177,0.512c-0.151-0.097-0.432-0.224-0.791-0.224c-0.416,0-0.647,0.239-0.647,0.527
			c0,0.32,0.231,0.464,0.735,0.656c0.672,0.256,1.016,0.591,1.016,1.166c0,0.68-0.528,1.16-1.447,1.16
			c-0.424,0-0.815-0.104-1.088-0.264L628.125,486.749z"/>
	</g>
	<g>
		<path fill="#333333" d="M652.294,426.621c0.312,0.191,0.768,0.352,1.247,0.352c0.712,0,1.128-0.375,1.128-0.919
			c0-0.504-0.288-0.792-1.016-1.071c-0.88-0.313-1.424-0.768-1.424-1.527c0-0.84,0.696-1.463,1.743-1.463
			c0.552,0,0.952,0.127,1.191,0.264l-0.191,0.567c-0.176-0.096-0.536-0.256-1.023-0.256c-0.735,0-1.016,0.44-1.016,0.808
			c0,0.504,0.328,0.752,1.071,1.039c0.912,0.352,1.375,0.792,1.375,1.584c0,0.831-0.615,1.551-1.887,1.551
			c-0.52,0-1.087-0.152-1.375-0.344L652.294,426.621z"/>
		<path fill="#333333" d="M656.311,421.792h0.703v2.415h0.017c0.111-0.2,0.287-0.377,0.503-0.496c0.208-0.12,0.456-0.2,0.72-0.2
			c0.52,0,1.352,0.319,1.352,1.655v2.303h-0.704v-2.223c0-0.624-0.231-1.151-0.896-1.151c-0.455,0-0.815,0.319-0.943,0.704
			c-0.04,0.096-0.048,0.199-0.048,0.335v2.335h-0.703V421.792z"/>
		<path fill="#333333" d="M664.253,425.501c0,1.432-0.991,2.055-1.927,2.055c-1.048,0-1.855-0.768-1.855-1.99
			c0-1.296,0.848-2.056,1.919-2.056C663.501,423.51,664.253,424.318,664.253,425.501z M661.183,425.542
			c0,0.847,0.487,1.487,1.175,1.487c0.672,0,1.176-0.632,1.176-1.504c0-0.655-0.328-1.486-1.159-1.486
			C661.542,424.039,661.183,424.806,661.183,425.542z"/>
		<path fill="#333333" d="M665.367,423.598l0.512,1.968c0.112,0.432,0.216,0.831,0.288,1.23h0.024
			c0.088-0.392,0.216-0.807,0.344-1.223l0.631-1.976h0.592l0.6,1.935c0.145,0.465,0.256,0.872,0.344,1.264h0.024
			c0.063-0.392,0.168-0.799,0.296-1.255l0.552-1.943h0.695l-1.247,3.87h-0.64l-0.592-1.848c-0.136-0.432-0.248-0.814-0.344-1.271
			h-0.016c-0.097,0.464-0.216,0.863-0.353,1.279l-0.623,1.839h-0.64l-1.168-3.87H665.367z"/>
		<path fill="#333333" d="M671.287,425.662c0.016,0.951,0.623,1.343,1.327,1.343c0.504,0,0.808-0.088,1.071-0.2l0.12,0.504
			c-0.248,0.112-0.672,0.24-1.287,0.24c-1.191,0-1.903-0.783-1.903-1.951c0-1.167,0.688-2.087,1.815-2.087
			c1.263,0,1.599,1.111,1.599,1.823c0,0.145-0.016,0.256-0.023,0.328H671.287z M673.349,425.158
			c0.008-0.447-0.184-1.144-0.976-1.144c-0.711,0-1.023,0.655-1.079,1.144H673.349z"/>
		<path fill="#333333" d="M674.903,424.806c0-0.456-0.009-0.848-0.032-1.208h0.615l0.024,0.76h0.032
			c0.176-0.52,0.6-0.848,1.071-0.848c0.08,0,0.136,0.009,0.2,0.024v0.664c-0.072-0.017-0.145-0.024-0.24-0.024
			c-0.496,0-0.848,0.376-0.943,0.903c-0.017,0.096-0.032,0.208-0.032,0.328v2.063h-0.695V424.806z"/>
		<path fill="#333333" d="M677.422,426.749c0.208,0.136,0.576,0.28,0.928,0.28c0.512,0,0.752-0.256,0.752-0.576
			c0-0.336-0.2-0.52-0.72-0.711c-0.695-0.248-1.023-0.633-1.023-1.096c0-0.624,0.504-1.136,1.335-1.136
			c0.392,0,0.735,0.112,0.952,0.24l-0.177,0.512c-0.151-0.097-0.432-0.224-0.791-0.224c-0.416,0-0.647,0.239-0.647,0.527
			c0,0.32,0.231,0.464,0.735,0.656c0.672,0.256,1.016,0.591,1.016,1.166c0,0.68-0.528,1.16-1.447,1.16
			c-0.424,0-0.815-0.104-1.088-0.264L677.422,426.749z"/>
	</g>
	<g>
		<path fill="#333333" d="M782.614,496.499v-0.432l0.552-0.536c1.328-1.264,1.928-1.935,1.936-2.719
			c0-0.527-0.256-1.015-1.031-1.015c-0.473,0-0.864,0.239-1.104,0.439l-0.225-0.495c0.36-0.305,0.872-0.528,1.472-0.528
			c1.119,0,1.591,0.768,1.591,1.511c0,0.96-0.695,1.735-1.791,2.791l-0.416,0.384v0.017h2.335v0.583H782.614z"/>
		<path fill="#333333" d="M789.684,491.797c-0.144-0.009-0.328,0-0.527,0.032c-1.104,0.184-1.688,0.991-1.808,1.847h0.024
			c0.248-0.328,0.68-0.6,1.255-0.6c0.92,0,1.567,0.663,1.567,1.679c0,0.951-0.647,1.831-1.728,1.831
			c-1.111,0-1.839-0.863-1.839-2.215c0-1.023,0.368-1.831,0.88-2.343c0.432-0.424,1.008-0.688,1.663-0.768
			c0.208-0.031,0.384-0.04,0.512-0.04V491.797z M789.484,494.795c0-0.743-0.424-1.191-1.071-1.191c-0.424,0-0.815,0.265-1.007,0.64
			c-0.049,0.08-0.08,0.184-0.08,0.313c0.016,0.855,0.407,1.486,1.143,1.486C789.077,496.042,789.484,495.539,789.484,494.795z"/>
		<path fill="#333333" d="M794.275,493.844c0,1.767-0.655,2.742-1.807,2.742c-1.016,0-1.703-0.951-1.719-2.671
			c0-1.742,0.751-2.702,1.807-2.702C793.652,491.213,794.275,492.189,794.275,493.844z M791.453,493.923
			c0,1.352,0.416,2.119,1.056,2.119c0.72,0,1.063-0.84,1.063-2.166c0-1.279-0.328-2.119-1.056-2.119
			C791.901,491.757,791.453,492.509,791.453,493.923z"/>
		<path fill="#333333" d="M794.924,496.499v-0.432l0.552-0.536c1.328-1.264,1.928-1.935,1.936-2.719
			c0-0.527-0.256-1.015-1.031-1.015c-0.473,0-0.864,0.239-1.104,0.439l-0.225-0.495c0.36-0.305,0.872-0.528,1.472-0.528
			c1.119,0,1.591,0.768,1.591,1.511c0,0.96-0.695,1.735-1.791,2.791l-0.416,0.384v0.017h2.335v0.583H794.924z"/>
	</g>
	<g>
		<path fill="#333333" d="M598.633,496.499v-0.432l0.552-0.536c1.328-1.264,1.928-1.935,1.936-2.719
			c0-0.527-0.256-1.015-1.031-1.015c-0.473,0-0.864,0.239-1.104,0.439l-0.225-0.495c0.36-0.305,0.872-0.528,1.472-0.528
			c1.119,0,1.591,0.768,1.591,1.511c0,0.96-0.695,1.735-1.791,2.791l-0.416,0.384v0.017h2.335v0.583H598.633z"/>
		<path fill="#333333" d="M605.704,491.797c-0.144-0.009-0.328,0-0.527,0.032c-1.104,0.184-1.688,0.991-1.808,1.847h0.024
			c0.248-0.328,0.68-0.6,1.255-0.6c0.92,0,1.567,0.663,1.567,1.679c0,0.951-0.647,1.831-1.728,1.831
			c-1.111,0-1.839-0.863-1.839-2.215c0-1.023,0.368-1.831,0.88-2.343c0.432-0.424,1.008-0.688,1.663-0.768
			c0.208-0.031,0.384-0.04,0.512-0.04V491.797z M605.503,494.795c0-0.743-0.424-1.191-1.071-1.191c-0.424,0-0.815,0.265-1.007,0.64
			c-0.049,0.08-0.08,0.184-0.08,0.313c0.016,0.855,0.407,1.486,1.143,1.486C605.096,496.042,605.503,495.539,605.503,494.795z"/>
		<path fill="#333333" d="M610.294,493.844c0,1.767-0.655,2.742-1.807,2.742c-1.016,0-1.703-0.951-1.719-2.671
			c0-1.742,0.751-2.702,1.807-2.702C609.671,491.213,610.294,492.189,610.294,493.844z M607.472,493.923
			c0,1.352,0.416,2.119,1.056,2.119c0.72,0,1.063-0.84,1.063-2.166c0-1.279-0.328-2.119-1.056-2.119
			C607.92,491.757,607.472,492.509,607.472,493.923z"/>
		<path fill="#333333" d="M614.398,493.844c0,1.767-0.655,2.742-1.807,2.742c-1.016,0-1.703-0.951-1.719-2.671
			c0-1.742,0.751-2.702,1.807-2.702C613.775,491.213,614.398,492.189,614.398,493.844z M611.576,493.923
			c0,1.352,0.416,2.119,1.056,2.119c0.72,0,1.063-0.84,1.063-2.166c0-1.279-0.328-2.119-1.056-2.119
			C612.024,491.757,611.576,492.509,611.576,493.923z"/>
	</g>
	<g>
		<path fill="#333333" d="M658.094,436.499v-0.432l0.552-0.536c1.328-1.264,1.928-1.935,1.936-2.719
			c0-0.527-0.256-1.015-1.031-1.015c-0.473,0-0.864,0.239-1.104,0.439l-0.225-0.495c0.36-0.305,0.872-0.528,1.472-0.528
			c1.119,0,1.591,0.768,1.591,1.511c0,0.96-0.695,1.735-1.791,2.791l-0.416,0.384v0.017h2.335v0.583H658.094z"/>
		<path fill="#333333" d="M665.165,431.797c-0.144-0.009-0.328,0-0.527,0.032c-1.104,0.184-1.688,0.991-1.808,1.847h0.024
			c0.248-0.328,0.68-0.6,1.255-0.6c0.92,0,1.567,0.663,1.567,1.679c0,0.951-0.647,1.831-1.728,1.831
			c-1.111,0-1.839-0.863-1.839-2.215c0-1.023,0.368-1.831,0.88-2.343c0.432-0.424,1.008-0.688,1.663-0.768
			c0.208-0.031,0.384-0.04,0.512-0.04V431.797z M664.964,434.795c0-0.743-0.424-1.191-1.071-1.191c-0.424,0-0.815,0.265-1.007,0.64
			c-0.049,0.08-0.08,0.184-0.08,0.313c0.016,0.855,0.407,1.486,1.143,1.486C664.557,436.042,664.964,435.539,664.964,434.795z"/>
		<path fill="#333333" d="M669.755,433.844c0,1.767-0.655,2.742-1.807,2.742c-1.016,0-1.703-0.951-1.719-2.671
			c0-1.742,0.751-2.702,1.807-2.702C669.132,431.213,669.755,432.189,669.755,433.844z M666.933,433.923
			c0,1.352,0.416,2.119,1.056,2.119c0.72,0,1.063-0.84,1.063-2.166c0-1.279-0.328-2.119-1.056-2.119
			C667.381,431.757,666.933,432.509,666.933,433.923z"/>
		<path fill="#333333" d="M671.932,431.957h-0.016l-0.903,0.488l-0.137-0.535l1.136-0.608h0.6v5.197h-0.68V431.957z"/>
	</g>
	<g>
		<path fill="#333333" d="M644.12,248.692c-0.04-0.751-0.088-1.655-0.08-2.327h-0.024c-0.184,0.632-0.407,1.303-0.68,2.047
			l-0.951,2.614h-0.527l-0.872-2.566c-0.256-0.76-0.472-1.455-0.623-2.095h-0.017c-0.016,0.671-0.056,1.575-0.104,2.383
			l-0.145,2.311h-0.663l0.376-5.389h0.887l0.92,2.607c0.224,0.664,0.408,1.255,0.544,1.815h0.023
			c0.137-0.544,0.328-1.136,0.568-1.815l0.959-2.607h0.888l0.336,5.389h-0.68L644.12,248.692z"/>
		<path fill="#333333" d="M646.425,249.252c0.016,0.952,0.623,1.343,1.327,1.343c0.504,0,0.808-0.088,1.071-0.2l0.12,0.503
			c-0.248,0.112-0.672,0.24-1.287,0.24c-1.191,0-1.903-0.784-1.903-1.951c0-1.167,0.688-2.087,1.815-2.087
			c1.263,0,1.599,1.111,1.599,1.823c0,0.144-0.016,0.256-0.023,0.328H646.425z M648.488,248.749
			c0.008-0.448-0.184-1.144-0.976-1.144c-0.711,0-1.023,0.656-1.079,1.144H648.488z"/>
		<path fill="#333333" d="M650.042,248.237c0-0.4-0.009-0.728-0.032-1.048h0.624l0.04,0.64h0.016
			c0.191-0.368,0.64-0.728,1.279-0.728c0.535,0,1.367,0.32,1.367,1.647v2.311h-0.704v-2.231c0-0.624-0.231-1.143-0.896-1.143
			c-0.463,0-0.823,0.328-0.943,0.72c-0.031,0.088-0.048,0.208-0.048,0.328v2.327h-0.703V248.237z"/>
		<path fill="#333333" d="M654.945,245.582l-0.136,1.919h-0.432l-0.128-1.919H654.945z"/>
		<path fill="#333333" d="M655.833,250.339c0.208,0.136,0.576,0.28,0.928,0.28c0.512,0,0.752-0.256,0.752-0.576
			c0-0.335-0.2-0.52-0.72-0.711c-0.695-0.248-1.023-0.632-1.023-1.095c0-0.624,0.504-1.136,1.335-1.136
			c0.392,0,0.735,0.112,0.952,0.24l-0.177,0.512c-0.151-0.096-0.432-0.224-0.791-0.224c-0.416,0-0.647,0.24-0.647,0.528
			c0,0.32,0.231,0.464,0.735,0.656c0.672,0.256,1.016,0.591,1.016,1.167c0,0.68-0.528,1.16-1.447,1.16
			c-0.424,0-0.815-0.104-1.088-0.264L655.833,250.339z"/>
	</g>
	<g>
		<path fill="#333333" d="M633.273,254.772c0.352-0.072,0.855-0.112,1.336-0.112c0.743,0,1.223,0.136,1.559,0.44
			c0.271,0.24,0.424,0.607,0.424,1.023c0,0.711-0.447,1.184-1.016,1.375v0.024c0.416,0.144,0.664,0.527,0.792,1.087
			c0.176,0.751,0.304,1.271,0.416,1.479h-0.72c-0.088-0.152-0.208-0.616-0.36-1.287c-0.159-0.744-0.447-1.023-1.079-1.048h-0.655
			v2.335h-0.696V254.772z M633.969,257.227h0.711c0.744,0,1.216-0.408,1.216-1.023c0-0.696-0.504-1-1.239-1.008
			c-0.336,0-0.576,0.032-0.688,0.064V257.227z"/>
		<path fill="#333333" d="M637.977,258.282c0.016,0.952,0.624,1.343,1.327,1.343c0.504,0,0.808-0.088,1.071-0.2l0.12,0.503
			c-0.248,0.112-0.672,0.24-1.287,0.24c-1.191,0-1.903-0.784-1.903-1.951c0-1.167,0.688-2.087,1.815-2.087
			c1.263,0,1.599,1.111,1.599,1.823c0,0.144-0.016,0.256-0.023,0.328H637.977z M640.04,257.779c0.008-0.448-0.184-1.144-0.976-1.144
			c-0.711,0-1.023,0.656-1.079,1.144H640.04z"/>
		<path fill="#333333" d="M641.497,259.37c0.208,0.136,0.576,0.28,0.928,0.28c0.512,0,0.752-0.256,0.752-0.576
			c0-0.335-0.2-0.52-0.72-0.711c-0.695-0.248-1.023-0.632-1.023-1.095c0-0.624,0.504-1.136,1.335-1.136
			c0.392,0,0.735,0.112,0.952,0.24l-0.177,0.512c-0.151-0.096-0.432-0.224-0.791-0.224c-0.416,0-0.647,0.24-0.647,0.528
			c0,0.32,0.231,0.464,0.735,0.656c0.672,0.256,1.016,0.591,1.016,1.167c0,0.68-0.528,1.16-1.447,1.16
			c-0.424,0-0.815-0.104-1.088-0.264L641.497,259.37z"/>
		<path fill="#333333" d="M645.609,255.108v1.111h1.007v0.536h-1.007v2.087c0,0.479,0.136,0.751,0.527,0.751
			c0.184,0,0.319-0.024,0.408-0.048l0.031,0.528c-0.136,0.056-0.352,0.096-0.623,0.096c-0.328,0-0.592-0.104-0.76-0.296
			c-0.2-0.208-0.272-0.552-0.272-1.007v-2.111h-0.6v-0.536h0.6v-0.927L645.609,255.108z"/>
		<path fill="#333333" d="M647.409,257.427c0-0.456-0.009-0.848-0.032-1.208h0.615l0.024,0.76h0.032
			c0.176-0.52,0.6-0.848,1.071-0.848c0.08,0,0.136,0.008,0.2,0.024v0.664c-0.072-0.016-0.145-0.024-0.24-0.024
			c-0.496,0-0.848,0.375-0.943,0.903c-0.017,0.096-0.032,0.208-0.032,0.328v2.063h-0.695V257.427z"/>
		<path fill="#333333" d="M653.447,258.123c0,1.431-0.991,2.055-1.927,2.055c-1.048,0-1.855-0.768-1.855-1.991
			c0-1.295,0.848-2.055,1.919-2.055C652.695,256.131,653.447,256.939,653.447,258.123z M650.376,258.163
			c0,0.847,0.487,1.487,1.175,1.487c0.672,0,1.176-0.631,1.176-1.503c0-0.656-0.328-1.487-1.159-1.487
			C650.736,256.659,650.376,257.427,650.376,258.163z"/>
		<path fill="#333333" d="M657.838,258.123c0,1.431-0.991,2.055-1.927,2.055c-1.048,0-1.855-0.768-1.855-1.991
			c0-1.295,0.848-2.055,1.919-2.055C657.086,256.131,657.838,256.939,657.838,258.123z M654.768,258.163
			c0,0.847,0.487,1.487,1.175,1.487c0.672,0,1.176-0.631,1.176-1.503c0-0.656-0.328-1.487-1.159-1.487
			C655.127,256.659,654.768,257.427,654.768,258.163z"/>
		<path fill="#333333" d="M658.728,257.267c0-0.4-0.008-0.728-0.032-1.048h0.615l0.032,0.624h0.024
			c0.216-0.368,0.575-0.712,1.215-0.712c0.528,0,0.928,0.32,1.096,0.776h0.016c0.12-0.216,0.272-0.384,0.432-0.504
			c0.232-0.176,0.488-0.272,0.855-0.272c0.512,0,1.271,0.336,1.271,1.679v2.279h-0.688v-2.191c0-0.744-0.271-1.191-0.84-1.191
			c-0.399,0-0.711,0.296-0.831,0.64c-0.032,0.096-0.056,0.224-0.056,0.352v2.391h-0.688v-2.319c0-0.616-0.271-1.063-0.807-1.063
			c-0.44,0-0.76,0.352-0.872,0.704c-0.04,0.104-0.056,0.224-0.056,0.344v2.335h-0.688V257.267z"/>
	</g>
	<g>
		<path fill="#333333" d="M688.383,251.059l-1.367-5.389h0.735l0.64,2.727c0.16,0.672,0.304,1.343,0.399,1.863h0.017
			c0.088-0.536,0.256-1.175,0.439-1.871l0.72-2.719h0.728l0.655,2.735c0.152,0.64,0.296,1.279,0.376,1.847h0.017
			c0.111-0.592,0.264-1.191,0.432-1.863l0.711-2.719h0.712l-1.527,5.389h-0.728l-0.68-2.807c-0.168-0.688-0.279-1.215-0.352-1.759
			h-0.016c-0.097,0.536-0.216,1.063-0.416,1.759l-0.768,2.807H688.383z"/>
		<path fill="#333333" d="M697.486,249.092c0,1.431-0.991,2.055-1.927,2.055c-1.048,0-1.855-0.768-1.855-1.991
			c0-1.295,0.848-2.055,1.919-2.055C696.734,247.101,697.486,247.909,697.486,249.092z M694.416,249.132
			c0,0.847,0.487,1.487,1.175,1.487c0.672,0,1.176-0.631,1.176-1.503c0-0.656-0.328-1.487-1.159-1.487
			C694.775,247.629,694.416,248.396,694.416,249.132z"/>
		<path fill="#333333" d="M698.375,248.237c0-0.4-0.009-0.728-0.032-1.048h0.615l0.032,0.624h0.024
			c0.216-0.368,0.575-0.712,1.215-0.712c0.528,0,0.928,0.32,1.096,0.776h0.016c0.12-0.216,0.272-0.384,0.432-0.504
			c0.232-0.176,0.488-0.272,0.855-0.272c0.512,0,1.271,0.336,1.271,1.679v2.279h-0.688v-2.191c0-0.744-0.271-1.191-0.84-1.191
			c-0.399,0-0.711,0.296-0.831,0.64c-0.032,0.096-0.056,0.224-0.056,0.352v2.391h-0.688v-2.319c0-0.616-0.272-1.063-0.808-1.063
			c-0.44,0-0.76,0.352-0.872,0.704c-0.04,0.104-0.056,0.224-0.056,0.344v2.335h-0.688V248.237z"/>
		<path fill="#333333" d="M705.439,249.252c0.016,0.952,0.623,1.343,1.327,1.343c0.504,0,0.808-0.088,1.071-0.2l0.12,0.503
			c-0.248,0.112-0.672,0.24-1.287,0.24c-1.191,0-1.903-0.784-1.903-1.951c0-1.167,0.688-2.087,1.815-2.087
			c1.263,0,1.599,1.111,1.599,1.823c0,0.144-0.016,0.256-0.023,0.328H705.439z M707.501,248.749
			c0.008-0.448-0.184-1.144-0.976-1.144c-0.711,0-1.023,0.656-1.079,1.144H707.501z"/>
		<path fill="#333333" d="M709.055,248.237c0-0.4-0.009-0.728-0.032-1.048h0.624l0.04,0.64h0.016
			c0.191-0.368,0.64-0.728,1.279-0.728c0.535,0,1.367,0.32,1.367,1.647v2.311h-0.704v-2.231c0-0.624-0.231-1.143-0.896-1.143
			c-0.463,0-0.823,0.328-0.943,0.72c-0.031,0.088-0.048,0.208-0.048,0.328v2.327h-0.703V248.237z"/>
		<path fill="#333333" d="M713.958,245.582l-0.136,1.919h-0.432l-0.128-1.919H713.958z"/>
		<path fill="#333333" d="M714.846,250.339c0.208,0.136,0.576,0.28,0.928,0.28c0.512,0,0.752-0.256,0.752-0.576
			c0-0.335-0.2-0.52-0.72-0.711c-0.695-0.248-1.023-0.632-1.023-1.095c0-0.624,0.504-1.136,1.335-1.136
			c0.392,0,0.735,0.112,0.952,0.24l-0.177,0.512c-0.151-0.096-0.432-0.224-0.791-0.224c-0.416,0-0.647,0.24-0.647,0.528
			c0,0.32,0.231,0.464,0.735,0.656c0.672,0.256,1.016,0.591,1.016,1.167c0,0.68-0.528,1.16-1.447,1.16
			c-0.424,0-0.815-0.104-1.088-0.264L714.846,250.339z"/>
	</g>
	<g>
		<path fill="#333333" d="M686.744,254.772c0.352-0.072,0.855-0.112,1.336-0.112c0.743,0,1.223,0.136,1.559,0.44
			c0.271,0.24,0.424,0.607,0.424,1.023c0,0.711-0.447,1.184-1.016,1.375v0.024c0.416,0.144,0.664,0.527,0.792,1.087
			c0.176,0.751,0.304,1.271,0.416,1.479h-0.72c-0.088-0.152-0.208-0.616-0.36-1.287c-0.159-0.744-0.447-1.023-1.079-1.048h-0.655
			v2.335h-0.696V254.772z M687.44,257.227h0.711c0.744,0,1.216-0.408,1.216-1.023c0-0.696-0.504-1-1.239-1.008
			c-0.336,0-0.576,0.032-0.688,0.064V257.227z"/>
		<path fill="#333333" d="M691.448,258.282c0.016,0.952,0.624,1.343,1.327,1.343c0.504,0,0.808-0.088,1.071-0.2l0.12,0.503
			c-0.248,0.112-0.672,0.24-1.287,0.24c-1.191,0-1.903-0.784-1.903-1.951c0-1.167,0.688-2.087,1.815-2.087
			c1.263,0,1.599,1.111,1.599,1.823c0,0.144-0.016,0.256-0.023,0.328H691.448z M693.51,257.779c0.008-0.448-0.184-1.144-0.976-1.144
			c-0.711,0-1.023,0.656-1.079,1.144H693.51z"/>
		<path fill="#333333" d="M694.967,259.37c0.208,0.136,0.576,0.28,0.928,0.28c0.512,0,0.752-0.256,0.752-0.576
			c0-0.335-0.2-0.52-0.72-0.711c-0.695-0.248-1.023-0.632-1.023-1.095c0-0.624,0.504-1.136,1.335-1.136
			c0.392,0,0.735,0.112,0.952,0.24l-0.177,0.512c-0.151-0.096-0.432-0.224-0.791-0.224c-0.416,0-0.647,0.24-0.647,0.528
			c0,0.32,0.231,0.464,0.735,0.656c0.672,0.256,1.016,0.591,1.016,1.167c0,0.68-0.528,1.16-1.447,1.16
			c-0.424,0-0.815-0.104-1.088-0.264L694.967,259.37z"/>
		<path fill="#333333" d="M699.08,255.108v1.111h1.007v0.536h-1.007v2.087c0,0.479,0.136,0.751,0.527,0.751
			c0.184,0,0.319-0.024,0.408-0.048l0.031,0.528c-0.136,0.056-0.352,0.096-0.623,0.096c-0.328,0-0.592-0.104-0.76-0.296
			c-0.2-0.208-0.272-0.552-0.272-1.007v-2.111h-0.6v-0.536h0.6v-0.927L699.08,255.108z"/>
		<path fill="#333333" d="M700.879,257.427c0-0.456-0.009-0.848-0.032-1.208h0.615l0.024,0.76h0.032
			c0.176-0.52,0.6-0.848,1.071-0.848c0.08,0,0.136,0.008,0.2,0.024v0.664c-0.072-0.016-0.145-0.024-0.24-0.024
			c-0.496,0-0.848,0.375-0.943,0.903c-0.017,0.096-0.032,0.208-0.032,0.328v2.063h-0.695V257.427z"/>
		<path fill="#333333" d="M706.917,258.123c0,1.431-0.991,2.055-1.927,2.055c-1.048,0-1.855-0.768-1.855-1.991
			c0-1.295,0.848-2.055,1.919-2.055C706.166,256.131,706.917,256.939,706.917,258.123z M703.847,258.163
			c0,0.847,0.487,1.487,1.175,1.487c0.672,0,1.176-0.631,1.176-1.503c0-0.656-0.328-1.487-1.159-1.487
			C704.207,256.659,703.847,257.427,703.847,258.163z"/>
		<path fill="#333333" d="M711.309,258.123c0,1.431-0.991,2.055-1.927,2.055c-1.048,0-1.855-0.768-1.855-1.991
			c0-1.295,0.848-2.055,1.919-2.055C710.557,256.131,711.309,256.939,711.309,258.123z M708.239,258.163
			c0,0.847,0.487,1.487,1.175,1.487c0.672,0,1.176-0.631,1.176-1.503c0-0.656-0.328-1.487-1.159-1.487
			C708.598,256.659,708.239,257.427,708.239,258.163z"/>
		<path fill="#333333" d="M712.199,257.267c0-0.4-0.008-0.728-0.032-1.048h0.615l0.032,0.624h0.024
			c0.216-0.368,0.575-0.712,1.215-0.712c0.528,0,0.928,0.32,1.096,0.776h0.016c0.12-0.216,0.272-0.384,0.432-0.504
			c0.232-0.176,0.488-0.272,0.855-0.272c0.512,0,1.271,0.336,1.271,1.679v2.279h-0.688v-2.191c0-0.744-0.271-1.191-0.84-1.191
			c-0.399,0-0.711,0.296-0.831,0.64c-0.032,0.096-0.056,0.224-0.056,0.352v2.391h-0.688v-2.319c0-0.616-0.271-1.063-0.807-1.063
			c-0.44,0-0.76,0.352-0.872,0.704c-0.04,0.104-0.056,0.224-0.056,0.344v2.335h-0.688V257.267z"/>
	</g>
	<g>
		<path fill="#333333" d="M960.301,153.394v-0.432l0.552-0.536c1.328-1.264,1.928-1.935,1.936-2.719
			c0-0.528-0.256-1.015-1.031-1.015c-0.473,0-0.864,0.24-1.104,0.439l-0.225-0.496c0.36-0.304,0.872-0.528,1.472-0.528
			c1.119,0,1.591,0.768,1.591,1.511c0,0.959-0.695,1.735-1.791,2.791l-0.416,0.384v0.016h2.335v0.583H960.301z"/>
		<path fill="#333333" d="M967.372,148.693c-0.144-0.008-0.328,0-0.527,0.032c-1.104,0.184-1.688,0.992-1.808,1.847h0.024
			c0.248-0.328,0.68-0.6,1.255-0.6c0.92,0,1.567,0.664,1.567,1.679c0,0.952-0.647,1.831-1.728,1.831
			c-1.111,0-1.839-0.863-1.839-2.215c0-1.023,0.368-1.831,0.88-2.343c0.432-0.424,1.008-0.688,1.663-0.768
			c0.208-0.032,0.384-0.04,0.512-0.04V148.693z M967.171,151.691c0-0.744-0.424-1.191-1.071-1.191c-0.424,0-0.815,0.264-1.007,0.64
			c-0.049,0.08-0.08,0.184-0.08,0.312c0.016,0.855,0.407,1.487,1.143,1.487C966.764,152.938,967.171,152.435,967.171,151.691z"/>
		<path fill="#333333" d="M970.037,148.853h-0.016l-0.903,0.488l-0.136-0.536l1.135-0.608h0.6v5.197h-0.68V148.853z"/>
		<path fill="#333333" d="M972.613,153.394v-0.432l0.552-0.536c1.327-1.264,1.928-1.935,1.936-2.719
			c0-0.528-0.256-1.015-1.031-1.015c-0.472,0-0.864,0.24-1.104,0.439l-0.225-0.496c0.36-0.304,0.872-0.528,1.472-0.528
			c1.119,0,1.591,0.768,1.591,1.511c0,0.959-0.695,1.735-1.791,2.791l-0.415,0.384v0.016h2.334v0.583H972.613z"/>
	</g>
	<g>
		<path fill="#333333" d="M965.301,201.144v-0.432l0.552-0.536c1.328-1.264,1.928-1.935,1.936-2.719
			c0-0.528-0.256-1.015-1.031-1.015c-0.473,0-0.864,0.24-1.104,0.439l-0.225-0.496c0.36-0.304,0.872-0.528,1.472-0.528
			c1.119,0,1.591,0.768,1.591,1.511c0,0.959-0.695,1.735-1.791,2.791l-0.416,0.384v0.016h2.335v0.583H965.301z"/>
		<path fill="#333333" d="M972.372,196.443c-0.144-0.008-0.328,0-0.527,0.032c-1.104,0.184-1.688,0.992-1.808,1.847h0.024
			c0.248-0.328,0.68-0.6,1.255-0.6c0.92,0,1.567,0.664,1.567,1.679c0,0.952-0.647,1.831-1.728,1.831
			c-1.111,0-1.839-0.863-1.839-2.215c0-1.023,0.368-1.831,0.88-2.343c0.432-0.424,1.008-0.688,1.663-0.768
			c0.208-0.032,0.384-0.04,0.512-0.04V196.443z M972.171,199.441c0-0.744-0.424-1.191-1.071-1.191c-0.424,0-0.815,0.264-1.007,0.64
			c-0.049,0.08-0.08,0.184-0.08,0.312c0.016,0.855,0.407,1.487,1.143,1.487C971.764,200.688,972.171,200.185,972.171,199.441z"/>
		<path fill="#333333" d="M975.036,196.603h-0.016l-0.903,0.488l-0.137-0.536l1.136-0.608h0.6v5.197h-0.68V196.603z"/>
		<path fill="#333333" d="M979.139,196.603h-0.016l-0.903,0.488l-0.137-0.536l1.136-0.608h0.6v5.197h-0.68V196.603z"/>
	</g>
	<g>
		<path fill="#333333" d="M965.301,248.144v-0.432l0.552-0.536c1.328-1.264,1.928-1.935,1.936-2.719
			c0-0.528-0.256-1.015-1.031-1.015c-0.473,0-0.864,0.24-1.104,0.439l-0.225-0.496c0.36-0.304,0.872-0.528,1.472-0.528
			c1.119,0,1.591,0.768,1.591,1.511c0,0.959-0.695,1.735-1.791,2.791l-0.416,0.384v0.016h2.335v0.583H965.301z"/>
		<path fill="#333333" d="M972.372,243.443c-0.144-0.008-0.328,0-0.527,0.032c-1.104,0.184-1.688,0.992-1.808,1.847h0.024
			c0.248-0.328,0.68-0.6,1.255-0.6c0.92,0,1.567,0.664,1.567,1.679c0,0.952-0.647,1.831-1.728,1.831
			c-1.111,0-1.839-0.863-1.839-2.215c0-1.023,0.368-1.831,0.88-2.343c0.432-0.424,1.008-0.688,1.663-0.768
			c0.208-0.032,0.384-0.04,0.512-0.04V243.443z M972.171,246.441c0-0.744-0.424-1.191-1.071-1.191c-0.424,0-0.815,0.264-1.007,0.64
			c-0.049,0.08-0.08,0.184-0.08,0.312c0.016,0.855,0.407,1.487,1.143,1.487C971.764,247.688,972.171,247.185,972.171,246.441z"/>
		<path fill="#333333" d="M976.962,245.49c0,1.767-0.655,2.742-1.807,2.742c-1.016,0-1.703-0.951-1.719-2.67
			c0-1.743,0.751-2.703,1.807-2.703C976.339,242.859,976.962,243.834,976.962,245.49z M974.14,245.569
			c0,1.352,0.416,2.119,1.056,2.119c0.72,0,1.063-0.84,1.063-2.167c0-1.279-0.328-2.119-1.056-2.119
			C974.588,243.403,974.14,244.154,974.14,245.569z"/>
		<path fill="#333333" d="M978.02,247.648c0.152,0.016,0.328,0,0.567-0.024c0.408-0.056,0.792-0.224,1.088-0.504
			c0.344-0.312,0.592-0.768,0.688-1.383h-0.024c-0.287,0.352-0.703,0.56-1.223,0.56c-0.936,0-1.535-0.704-1.535-1.591
			c0-0.983,0.711-1.847,1.774-1.847s1.72,0.864,1.72,2.191c0,1.143-0.384,1.943-0.896,2.438c-0.4,0.392-0.952,0.632-1.512,0.696
			c-0.256,0.04-0.479,0.048-0.647,0.04V247.648z M978.276,244.658c0,0.648,0.392,1.104,0.999,1.104c0.473,0,0.84-0.232,1.023-0.543
			c0.04-0.064,0.064-0.144,0.064-0.256c0-0.888-0.328-1.567-1.063-1.567C978.7,243.395,978.276,243.922,978.276,244.658z"/>
	</g>
	<g>
		<path fill="#333333" d="M965.301,297.144v-0.432l0.552-0.536c1.328-1.264,1.928-1.935,1.936-2.719
			c0-0.528-0.256-1.015-1.031-1.015c-0.473,0-0.864,0.24-1.104,0.439l-0.225-0.496c0.36-0.304,0.872-0.528,1.472-0.528
			c1.119,0,1.591,0.768,1.591,1.511c0,0.959-0.695,1.735-1.791,2.791l-0.416,0.384v0.016h2.335v0.583H965.301z"/>
		<path fill="#333333" d="M972.372,292.443c-0.144-0.008-0.328,0-0.527,0.032c-1.104,0.184-1.688,0.992-1.808,1.847h0.024
			c0.248-0.328,0.68-0.6,1.255-0.6c0.92,0,1.567,0.664,1.567,1.679c0,0.952-0.647,1.831-1.728,1.831
			c-1.111,0-1.839-0.863-1.839-2.215c0-1.023,0.368-1.831,0.88-2.343c0.432-0.424,1.008-0.688,1.663-0.768
			c0.208-0.032,0.384-0.04,0.512-0.04V292.443z M972.171,295.441c0-0.744-0.424-1.191-1.071-1.191c-0.424,0-0.815,0.264-1.007,0.64
			c-0.049,0.08-0.08,0.184-0.08,0.312c0.016,0.855,0.407,1.487,1.143,1.487C971.764,296.688,972.171,296.185,972.171,295.441z"/>
		<path fill="#333333" d="M976.962,294.49c0,1.767-0.655,2.742-1.807,2.742c-1.016,0-1.703-0.951-1.719-2.67
			c0-1.743,0.751-2.703,1.807-2.703C976.339,291.859,976.962,292.834,976.962,294.49z M974.14,294.569
			c0,1.352,0.416,2.119,1.056,2.119c0.72,0,1.063-0.84,1.063-2.167c0-1.279-0.328-2.119-1.056-2.119
			C974.588,292.403,974.14,293.154,974.14,294.569z"/>
		<path fill="#333333" d="M980.987,291.947v0.464l-2.263,4.733h-0.729l2.255-4.598v-0.016h-2.542v-0.584H980.987z"/>
	</g>
	<g>
		<path fill="#333333" d="M965.301,344.785v-0.432l0.552-0.535c1.328-1.264,1.928-1.936,1.936-2.719
			c0-0.528-0.256-1.016-1.031-1.016c-0.473,0-0.864,0.24-1.104,0.439l-0.225-0.496c0.36-0.303,0.872-0.527,1.472-0.527
			c1.119,0,1.591,0.768,1.591,1.512c0,0.959-0.695,1.734-1.791,2.79l-0.416,0.384v0.016h2.335v0.584H965.301z"/>
		<path fill="#333333" d="M972.372,340.083c-0.144-0.008-0.328,0-0.527,0.031c-1.104,0.185-1.688,0.992-1.808,1.848h0.024
			c0.248-0.328,0.68-0.6,1.255-0.6c0.92,0,1.567,0.664,1.567,1.679c0,0.952-0.647,1.831-1.728,1.831
			c-1.111,0-1.839-0.863-1.839-2.215c0-1.023,0.368-1.831,0.88-2.343c0.432-0.424,1.008-0.688,1.663-0.768
			c0.208-0.032,0.384-0.04,0.512-0.04V340.083z M972.171,343.082c0-0.744-0.424-1.191-1.071-1.191c-0.424,0-0.815,0.264-1.007,0.64
			c-0.049,0.08-0.08,0.185-0.08,0.312c0.016,0.855,0.407,1.488,1.143,1.488C971.764,344.33,972.171,343.826,972.171,343.082z"/>
		<path fill="#333333" d="M976.962,342.13c0,1.767-0.655,2.742-1.807,2.742c-1.016,0-1.703-0.951-1.719-2.67
			c0-1.744,0.751-2.703,1.807-2.703C976.339,339.5,976.962,340.475,976.962,342.13z M974.14,342.21c0,1.352,0.416,2.119,1.056,2.119
			c0.72,0,1.063-0.84,1.063-2.168c0-1.279-0.328-2.118-1.056-2.118C974.588,340.043,974.14,340.794,974.14,342.21z"/>
		<path fill="#333333" d="M980.579,340.083c-0.144-0.008-0.328,0-0.527,0.031c-1.104,0.185-1.688,0.992-1.808,1.848h0.024
			c0.248-0.328,0.68-0.6,1.255-0.6c0.92,0,1.567,0.664,1.567,1.679c0,0.952-0.647,1.831-1.728,1.831
			c-1.111,0-1.839-0.863-1.839-2.215c0-1.023,0.368-1.831,0.88-2.343c0.432-0.424,1.008-0.688,1.663-0.768
			c0.208-0.032,0.384-0.04,0.512-0.04V340.083z M980.378,343.082c0-0.744-0.424-1.191-1.071-1.191c-0.424,0-0.815,0.264-1.007,0.64
			c-0.049,0.08-0.08,0.185-0.08,0.312c0.016,0.855,0.407,1.488,1.143,1.488C979.971,344.33,980.378,343.826,980.378,343.082z"/>
	</g>
	<g>
		<path fill="#333333" d="M965.301,392.425v-0.432l0.552-0.535c1.328-1.264,1.928-1.936,1.936-2.719
			c0-0.528-0.256-1.016-1.031-1.016c-0.473,0-0.864,0.24-1.104,0.439l-0.225-0.496c0.36-0.303,0.872-0.527,1.472-0.527
			c1.119,0,1.591,0.768,1.591,1.512c0,0.959-0.695,1.734-1.791,2.79l-0.416,0.384v0.016h2.335v0.584H965.301z"/>
		<path fill="#333333" d="M972.372,387.724c-0.144-0.008-0.328,0-0.527,0.031c-1.104,0.185-1.688,0.992-1.808,1.848h0.024
			c0.248-0.328,0.68-0.6,1.255-0.6c0.92,0,1.567,0.664,1.567,1.679c0,0.952-0.647,1.831-1.728,1.831
			c-1.111,0-1.839-0.863-1.839-2.215c0-1.023,0.368-1.831,0.88-2.343c0.432-0.424,1.008-0.688,1.663-0.768
			c0.208-0.032,0.384-0.04,0.512-0.04V387.724z M972.171,390.722c0-0.744-0.424-1.191-1.071-1.191c-0.424,0-0.815,0.264-1.007,0.64
			c-0.049,0.08-0.08,0.185-0.08,0.312c0.016,0.855,0.407,1.488,1.143,1.488C971.764,391.97,972.171,391.466,972.171,390.722z"/>
		<path fill="#333333" d="M976.962,389.771c0,1.767-0.655,2.742-1.807,2.742c-1.016,0-1.703-0.951-1.719-2.67
			c0-1.744,0.751-2.703,1.807-2.703C976.339,387.14,976.962,388.116,976.962,389.771z M974.14,389.851
			c0,1.352,0.416,2.119,1.056,2.119c0.72,0,1.063-0.84,1.063-2.168c0-1.279-0.328-2.118-1.056-2.118
			C974.588,387.684,974.14,388.435,974.14,389.851z"/>
		<path fill="#333333" d="M980.714,387.82h-1.982l-0.2,1.336c0.12-0.017,0.231-0.033,0.424-0.033c0.399,0,0.8,0.088,1.119,0.28
			c0.408,0.231,0.744,0.68,0.744,1.335c0,1.016-0.808,1.775-1.936,1.775c-0.567,0-1.047-0.16-1.295-0.32l0.176-0.535
			c0.216,0.128,0.64,0.288,1.111,0.288c0.664,0,1.231-0.433,1.231-1.128c-0.008-0.672-0.456-1.15-1.495-1.15
			c-0.296,0-0.528,0.031-0.72,0.055l0.336-2.494h2.486V387.82z"/>
	</g>
	<g>
		<path fill="#333333" d="M960.301,440.066v-0.432l0.552-0.535c1.328-1.264,1.928-1.936,1.936-2.719
			c0-0.528-0.256-1.016-1.031-1.016c-0.473,0-0.864,0.24-1.104,0.439l-0.225-0.496c0.36-0.303,0.872-0.527,1.472-0.527
			c1.119,0,1.591,0.768,1.591,1.512c0,0.959-0.695,1.734-1.791,2.79l-0.416,0.384v0.016h2.335v0.584H960.301z"/>
		<path fill="#333333" d="M967.372,435.365c-0.144-0.008-0.328,0-0.527,0.031c-1.104,0.185-1.688,0.992-1.808,1.848h0.024
			c0.248-0.328,0.68-0.6,1.255-0.6c0.92,0,1.567,0.664,1.567,1.679c0,0.952-0.647,1.831-1.728,1.831
			c-1.111,0-1.839-0.863-1.839-2.215c0-1.023,0.368-1.831,0.88-2.343c0.432-0.424,1.008-0.688,1.663-0.768
			c0.208-0.032,0.384-0.04,0.512-0.04V435.365z M967.171,438.363c0-0.744-0.424-1.191-1.071-1.191c-0.424,0-0.815,0.264-1.007,0.64
			c-0.049,0.08-0.08,0.185-0.08,0.312c0.016,0.855,0.407,1.488,1.143,1.488C966.764,439.611,967.171,439.107,967.171,438.363z"/>
		<path fill="#333333" d="M971.963,437.412c0,1.767-0.655,2.742-1.807,2.742c-1.016,0-1.703-0.951-1.719-2.67
			c0-1.744,0.751-2.703,1.807-2.703C971.34,434.781,971.963,435.756,971.963,437.412z M969.141,437.492
			c0,1.352,0.416,2.119,1.056,2.119c0.72,0,1.063-0.84,1.063-2.168c0-1.279-0.328-2.118-1.056-2.118
			C969.589,435.325,969.141,436.076,969.141,437.492z"/>
		<path fill="#333333" d="M974.788,440.066v-1.415h-2.414v-0.464l2.318-3.318h0.76v3.23h0.728v0.552h-0.728v1.415H974.788z
			 M974.788,438.099v-1.735c0-0.271,0.009-0.544,0.024-0.815h-0.024c-0.159,0.304-0.287,0.527-0.432,0.768l-1.271,1.768v0.016
			H974.788z"/>
	</g>
	<g>
		<path fill="#333333" d="M936.034,495.316v-0.432l0.552-0.535c1.328-1.264,1.928-1.936,1.936-2.719
			c0-0.528-0.256-1.016-1.031-1.016c-0.473,0-0.864,0.24-1.104,0.439l-0.225-0.496c0.36-0.303,0.872-0.527,1.472-0.527
			c1.119,0,1.591,0.768,1.591,1.512c0,0.959-0.695,1.734-1.791,2.79l-0.416,0.384v0.016h2.335v0.584H936.034z"/>
		<path fill="#333333" d="M943.104,490.615c-0.144-0.008-0.328,0-0.527,0.031c-1.104,0.185-1.688,0.992-1.808,1.848h0.024
			c0.248-0.328,0.68-0.6,1.255-0.6c0.92,0,1.567,0.664,1.567,1.679c0,0.952-0.647,1.831-1.728,1.831
			c-1.111,0-1.839-0.863-1.839-2.215c0-1.023,0.368-1.831,0.88-2.343c0.432-0.424,1.008-0.688,1.663-0.768
			c0.208-0.032,0.384-0.04,0.512-0.04V490.615z M942.904,493.613c0-0.744-0.424-1.191-1.071-1.191c-0.424,0-0.815,0.264-1.007,0.64
			c-0.049,0.08-0.08,0.185-0.08,0.312c0.016,0.855,0.407,1.488,1.143,1.488C942.497,494.861,942.904,494.357,942.904,493.613z"/>
		<path fill="#333333" d="M944.242,495.316v-0.432l0.552-0.535c1.327-1.264,1.928-1.936,1.936-2.719
			c0-0.528-0.256-1.016-1.031-1.016c-0.472,0-0.864,0.24-1.104,0.439l-0.225-0.496c0.36-0.303,0.872-0.527,1.472-0.527
			c1.119,0,1.591,0.768,1.591,1.512c0,0.959-0.695,1.734-1.791,2.79l-0.415,0.384v0.016h2.334v0.584H944.242z"/>
		<path fill="#333333" d="M949.873,490.775h-0.016l-0.903,0.487l-0.136-0.536l1.135-0.607h0.6v5.197h-0.68V490.775z"/>
	</g>
</g>
</svg>
