<?xml version="1.0" encoding="utf-8"?>
<svg version="1.1" xmlns="http://www.w3.org/2000/svg" xmlns:xlink="http://www.w3.org/1999/xlink" x="0px" y="0px" width="1224px"
	 height="792px" viewBox="0 0 1224 792" enable-background="new 0 0 1224 792" xml:space="preserve">
<g id="Floorplate">
	<polygon fill="#EEEEEE" stroke="#000000" stroke-width="1.5" stroke-miterlimit="10" points="925.436,228.106 925.436,187.934 
		857.602,120.101 817.199,120.101 817.199,109.104 407.751,109.104 407.751,120.029 366.32,120.029 298.486,187.863 
		298.486,228.106 289.602,228.106 289.602,636.619 300.302,636.619 300.302,677.593 368.136,745.427 407.751,745.427 
		407.751,756.113 817.199,756.113 817.199,744.677 857.188,744.677 925.021,676.843 925.021,636.619 935.269,636.619 
		935.269,228.106 	"/>
</g>
<g id="Offices">
	
		<rect id="o703" x="743.215" y="109.985" fill="#C1C1C1" stroke="#6C6C6C" stroke-width="0.75" stroke-miterlimit="10" width="59.83" height="87.64"/>
	
		<rect id="o704" x="683.424" y="109.985" fill="#C1C1C1" stroke="#6C6C6C" stroke-width="0.75" stroke-miterlimit="10" width="59.83" height="87.64"/>
	
		<rect id="o705" x="560.594" y="109.985" fill="#C1C1C1" stroke="#6C6C6C" stroke-width="0.75" stroke-miterlimit="10" width="122.83" height="87.64"/>
	
		<rect id="o706" x="422.765" y="109.985" fill="#C1C1C1" stroke="#6C6C6C" stroke-width="0.75" stroke-miterlimit="10" width="137.83" height="87.64"/>
	<path id="o707" fill="#C1C1C1" stroke="#6C6C6C" stroke-width="0.75" stroke-miterlimit="10" d="M516.834,231.41v15.376
		c-8.59,0-15.566-6.845-15.811-15.376H430.19v59.903h99.144V231.41H516.834z"/>
	<polyline id="o708bg" fill="#C1C1C1" stroke="#6C6C6C" stroke-width="0.75" stroke-miterlimit="10" points="554.834,275.334 
		554.834,230.691 601.88,230.691 601.88,292.92 554.834,292.92 	"/>
	<rect id="o708_1_" x="554.834" y="230.691" fill="#C1C1C1" width="47.046" height="62.229"/>
	<polygon id="o717" fill="#C1C1C1" stroke="#6C6C6C" stroke-width="0.75" stroke-miterlimit="10" points="333.332,154.043 
		366.22,120.788 422.765,120.788 422.765,183.793 362.206,182.673 	"/>
	<polygon id="o718" fill="#C1C1C1" stroke="#6C6C6C" stroke-width="0.75" stroke-miterlimit="10" points="362.206,182.358 
		362.25,242.302 298.51,242.302 298.51,188.917 333.332,153.728 	"/>
	
		<rect id="o719" x="289" y="242.302" fill="#C1C1C1" stroke="#6C6C6C" stroke-width="0.75" stroke-miterlimit="10" width="73.25" height="59.698"/>
	
		<rect id="o720" x="289" y="302" fill="#C1C1C1" stroke="#6C6C6C" stroke-width="0.75" stroke-miterlimit="10" width="73.25" height="65.698"/>
	
		<rect id="o721" x="289" y="367.698" fill="#C1C1C1" stroke="#6C6C6C" stroke-width="0.75" stroke-miterlimit="10" width="73.25" height="43.697"/>
	
		<rect id="o722" x="289" y="410.971" fill="#C1C1C1" stroke="#6C6C6C" stroke-width="0.75" stroke-miterlimit="10" width="73.25" height="43.696"/>
	
		<rect id="o723" x="289" y="454.667" fill="#C1C1C1" stroke="#6C6C6C" stroke-width="0.75" stroke-miterlimit="10" width="73.25" height="43.696"/>
	
		<rect id="o724" x="289" y="498.553" fill="#C1C1C1" stroke="#6C6C6C" stroke-width="0.75" stroke-miterlimit="10" width="73.25" height="65.696"/>
	
		<rect id="o725" x="289" y="564.133" fill="#C1C1C1" stroke="#6C6C6C" stroke-width="0.75" stroke-miterlimit="10" width="73.25" height="67.696"/>
	<polyline id="o726bg" fill="#C1C1C1" points="382.21,690.59 421.595,690.561 421.595,746.3 368.209,746.3 299.859,678.59 
		299.859,631.66 361.865,631.66 362.25,690.604 	"/>
	<polygon id="o726_1_" fill="none" stroke="#6C6C6C" stroke-width="0.75" stroke-miterlimit="10" points="382.21,691.059 
		421.595,691.029 421.595,746.769 368.209,746.769 299.859,679.059 299.859,632.129 361.865,632.129 362.25,691.073 	"/>
	<path id="o731" fill="#C1C1C1" stroke="#6C6C6C" stroke-width="0.75" stroke-miterlimit="10" d="M468.486,598.105v3.433h-39.315
		v-52.325h21.97c0.74,6.846,7.509,12.209,15.76,12.209v-12.209h1.585v27.514"/>
	<path id="o732" fill="#C1C1C1" stroke="#6C6C6C" stroke-width="0.75" stroke-miterlimit="10" d="M390.875,464.155v50.18h53.895
		v11.404h7.39c0.74-8.057,7.509-14.369,15.76-14.369v14.369h1.585v-61.584H390.875z"/>
	
		<rect id="o733" x="390.875" y="410.006" fill="#C1C1C1" stroke="#6C6C6C" stroke-width="0.75" stroke-miterlimit="10" width="78.63" height="54.149"/>
	
		<rect id="o734" x="390.875" y="365.141" fill="#C1C1C1" stroke="#6C6C6C" stroke-width="0.75" stroke-miterlimit="10" width="58.292" height="44.865"/>
	<path id="o736" fill="#C1C1C1" stroke="#6C6C6C" stroke-width="0.75" stroke-miterlimit="10" d="M430.19,290.67v56.29
		c8.344,0.447,14.977,7.334,14.977,15.79H430.19v2.391h18.977v44.865h19.879V290.67H430.19z"/>
	
		<rect id="o738" x="421.595" y="690.563" fill="#C1C1C1" stroke="#6C6C6C" stroke-width="0.75" stroke-miterlimit="10" width="59.25" height="66.44"/>
	
		<rect id="o739" x="480.845" y="690.563" fill="#C1C1C1" stroke="#6C6C6C" stroke-width="0.75" stroke-miterlimit="10" width="59.25" height="66.44"/>
	<rect id="o741" x="686.538" y="713.987" fill="#EEEEEE" width="47.008" height="38.219"/>
	
		<rect id="o742" x="735.188" y="691.119" fill="#C1C1C1" stroke="#6C6C6C" stroke-width="0.75" stroke-miterlimit="10" width="67.191" height="65.71"/>
	<polygon id="o743" fill="#C1C1C1" stroke="#6C6C6C" stroke-width="0.75" stroke-miterlimit="10" points="890.448,710.889 
		856.56,745.145 802.63,745.145 802.63,691.139 861.53,691.239 861.53,682.83 	"/>
	
		<rect id="o744" x="737.261" y="601.712" fill="#C1C1C1" stroke="#6C6C6C" stroke-width="0.75" stroke-miterlimit="10" width="57.481" height="55.534"/>
	<rect id="o745" x="696.364" y="601.538" fill="#EEEEEE" width="38.824" height="38.796"/>
	
		<rect id="o746" x="575.187" y="601.538" fill="#C1C1C1" stroke="#6C6C6C" stroke-width="0.75" stroke-miterlimit="10" width="87.833" height="56.842"/>
	
		<rect id="o747" x="526.515" y="601.538" fill="#C1C1C1" stroke="#6C6C6C" stroke-width="0.75" stroke-miterlimit="10" width="48.672" height="56.842"/>
	
		<rect id="o748" x="477.843" y="601.538" fill="#C1C1C1" stroke="#6C6C6C" stroke-width="0.75" stroke-miterlimit="10" width="48.672" height="56.842"/>
	
		<rect id="o749" x="429.171" y="601.538" fill="#C1C1C1" stroke="#6C6C6C" stroke-width="0.75" stroke-miterlimit="10" width="48.672" height="56.842"/>
	<polygon id="o752" fill="#C1C1C1" stroke="#6C6C6C" stroke-width="0.75" stroke-miterlimit="10" points="861.574,682.83 
		861.53,630.63 924.27,630.63 924.27,677.016 890.448,711.204 	"/>
	
		<rect id="o753" x="861.417" y="564.037" fill="#C1C1C1" stroke="#6C6C6C" stroke-width="0.75" stroke-miterlimit="10" width="73.25" height="67.696"/>
	
		<rect id="o754" x="861.417" y="498.457" fill="#C1C1C1" stroke="#6C6C6C" stroke-width="0.75" stroke-miterlimit="10" width="73.25" height="65.696"/>
	
		<rect id="o755" x="861.417" y="454.571" fill="#C1C1C1" stroke="#6C6C6C" stroke-width="0.75" stroke-miterlimit="10" width="73.25" height="43.696"/>
	
		<rect id="o756" x="861.417" y="410.875" fill="#C1C1C1" stroke="#6C6C6C" stroke-width="0.75" stroke-miterlimit="10" width="73.25" height="43.696"/>
	
		<rect id="o757" x="861.417" y="367.602" fill="#C1C1C1" stroke="#6C6C6C" stroke-width="0.75" stroke-miterlimit="10" width="73.25" height="43.697"/>
	
		<rect id="o758" x="861.417" y="301.904" fill="#C1C1C1" stroke="#6C6C6C" stroke-width="0.75" stroke-miterlimit="10" width="73.25" height="65.698"/>
	
		<rect id="o759" x="861.417" y="242.207" fill="#C1C1C1" stroke="#6C6C6C" stroke-width="0.75" stroke-miterlimit="10" width="73.25" height="59.698"/>
	<polygon id="o760" fill="#C1C1C1" stroke="#6C6C6C" stroke-width="0.75" stroke-miterlimit="10" points="890.509,154.63 
		924.765,188.519 924.765,241.45 861.759,241.45 861.879,182.505 	"/>
	<polygon id="o761" fill="#C1C1C1" stroke="#6C6C6C" stroke-width="0.75" stroke-miterlimit="10" points="862.194,182.505 
		803.25,182.549 803.25,120.81 856.636,120.81 890.824,154.63 	"/>
	
		<rect id="o766" x="776.084" y="447.059" fill="#C1C1C1" stroke="#6C6C6C" stroke-width="0.75" stroke-miterlimit="10" width="56.236" height="71.576"/>
	<path id="o767" fill="#C1C1C1" stroke="#6C6C6C" stroke-width="0.75" stroke-miterlimit="10" d="M752.002,447.059v82.409h4.181
		v-15.087c8.493,0,15.404,6.691,15.796,15.087h4.105v-82.409H752.002z"/>
	<path id="o770" fill="#C1C1C1" stroke="#6C6C6C" stroke-width="0.75" stroke-miterlimit="10" d="M771.97,553.674
		c-0.479,8.313-7.352,14.913-15.786,14.913v-14.913h-25.518v45.653h63.884v-45.653H771.97z"/>
	
		<rect id="o763" x="792.16" y="330.001" fill="#C1C1C1" stroke="#6C6C6C" stroke-width="0.75" stroke-miterlimit="10" width="40.34" height="32.888"/>
	<polygon id="o764" fill="#C1C1C1" stroke="#6C6C6C" stroke-width="0.75" stroke-miterlimit="10" points="792.16,362.75 
		792.16,330.334 794.55,330.334 794.55,290.222 752.002,290.222 752.002,362.889 794.55,362.889 794.55,362.75 	"/>
	
		<rect id="o765" x="752" y="362.75" fill="#C1C1C1" stroke="#6C6C6C" stroke-width="0.75" stroke-miterlimit="10" width="80.32" height="83.913"/>
	<path fill="#C1C1C1" stroke="#6C6C6C" stroke-width="0.75" stroke-miterlimit="10" d="M532.667,231.41"/>
	<path fill="#C1C1C1" stroke="#6C6C6C" stroke-width="0.75" stroke-miterlimit="10" d="M516.834,194.744"/>
	<path fill="#C1C1C1" stroke="#6C6C6C" stroke-width="0.75" stroke-miterlimit="10" d="M389.856,560.617"/>
	<path fill="#C1C1C1" stroke="#6C6C6C" stroke-width="0.75" stroke-miterlimit="10" d="M791.917,344.667
		c-8.745,0-15.833,7.089-15.833,15.833h15.833V344.667z"/>
	<line fill="none" stroke="#6C6C6C" stroke-miterlimit="10" x1="391.472" y1="329.909" x2="391.472" y2="348.283"/>
	<line fill="none" stroke="#6C6C6C" stroke-miterlimit="10" x1="390.875" y1="514.148" x2="390.875" y2="532.522"/>
	<line fill="none" stroke="#6C6C6C" stroke-miterlimit="10" x1="390.875" y1="549.213" x2="390.875" y2="561.587"/>
	<path fill="none" stroke="#6C6C6C" stroke-miterlimit="10" d="M422.756,214.259c7.226,0,13.083-5.857,13.083-13.083h-0.563h-12.52
		v-3.551"/>
	<path fill="none" stroke="#6C6C6C" stroke-miterlimit="10" d="M422.756,214.426c7.226,0,13.083,5.857,13.083,13.083h-0.563h-12.52
		v3.901h7.434"/>
	<path fill="none" stroke="#6C6C6C" stroke-miterlimit="10" d="M803.351,226.789h-12.52h-0.563c0-7.226,5.857-13.083,13.082-13.083
		v-0.167c-7.225,0-13.082-5.857-13.082-13.083h0.563h12.52v-2.83"/>
	<line fill="none" stroke="#6C6C6C" stroke-miterlimit="10" x1="803.045" y1="226.789" x2="803.045" y2="231.75"/>
	<path fill="none" stroke="#6C6C6C" stroke-miterlimit="10" d="M679.539,612.819c0-7.226-5.857-13.083-13.083-13.083v0.563v12.52
		h-3.437"/>
	<path fill="none" stroke="#6C6C6C" stroke-miterlimit="10" d="M679.706,612.819c0-7.226,5.857-13.083,13.083-13.083v0.563v12.52
		h2.695v-13.083h35.182"/>
	<path fill="none" stroke="#6C6C6C" stroke-miterlimit="10" d="M662.906,573.486v11.411c-7.226,0-13.083,5.857-13.083,13.083h13.083
		v3.731"/>
	<path fill="none" stroke="#6C6C6C" stroke-miterlimit="10" d="M468.486,576.512l-0.125,8.511c7.226,0,14.083,5.857,14.083,13.083
		h-14.083v3.731"/>
	<path fill="none" stroke="#6C6C6C" stroke-miterlimit="10" d="M697.324,594.564"/>
	<path fill="none" stroke="#6C6C6C" stroke-miterlimit="10" d="M684.805,594.564"/>
	
		<line fill="#C1C1C1" stroke="#6C6C6C" stroke-width="0.75" stroke-miterlimit="10" x1="727.654" y1="558.957" x2="727.654" y2="573.87"/>
	<path fill="none" stroke="#6C6C6C" stroke-width="0.75" stroke-miterlimit="10" d="M439.876,197.744v-15.376
		c8.59,0,15.566,6.845,15.811,15.376"/>
	<path fill="none" stroke="#6C6C6C" stroke-width="0.75" stroke-miterlimit="10" d="M689.051,197.744v-15.376
		c8.59,0,15.566,6.845,15.811,15.376"/>
	<path fill="none" stroke="#6C6C6C" stroke-width="0.75" stroke-miterlimit="10" d="M677.797,197.744v-15.376
		c-8.59,0-15.566,6.845-15.811,15.376"/>
	<path fill="none" stroke="#6C6C6C" stroke-width="0.75" stroke-miterlimit="10" d="M748.541,197.744v-15.376
		c8.59,0,15.566,6.845,15.811,15.376"/>
</g>
<g id="Cubes">
	<rect id="o702" x="732.17" y="231.62" fill="#D2D2D2" stroke="#FFFFFF" width="40.96" height="43.88"/>
	<rect id="o729A" x="390.46" y="608.88" fill="#D2D2D2" stroke="#FFFFFF" width="38.825" height="49.5"/>
	<rect id="o729B" x="390.46" y="561.587" fill="#D2D2D2" stroke="#FFFFFF" width="38.825" height="47.293"/>
	<rect id="o737A" x="391.472" y="278.81" fill="#D2D2D2" stroke="#FFFFFF" width="38.825" height="51.099"/>
	<rect id="o737B" x="391.472" y="231.41" fill="#D2D2D2" stroke="#FFFFFF" width="38.825" height="47.4"/>
	<rect id="o762B" x="794.55" y="281.25" fill="#D2D2D2" stroke="#FFFFFF" width="37.95" height="48.751"/>
	<rect id="o762A" x="794.55" y="232.524" fill="#D2D2D2" stroke="#FFFFFF" width="37.95" height="48.751"/>
	<rect id="o771B" x="794.743" y="610.41" fill="#D2D2D2" stroke="#FFFFFF" width="38.824" height="47.399"/>
	<rect id="o771A" x="794.743" y="563.436" fill="#D2D2D2" stroke="#FFFFFF" width="38.824" height="47.399"/>
	<rect id="o2926-B" x="696.364" y="601.538" fill="#D2D2D2" stroke="#FFFFFF" width="38.824" height="12.797"/>
	<rect id="o2926-A_10_" x="686.538" y="739.409" fill="#D2D2D2" stroke="#FFFFFF" width="47.65" height="12.797"/>
</g>
<g id="Elevators">
	<path fill="#E6E6E6" stroke="#333333" stroke-width="0.75" stroke-miterlimit="10" d="M705.58,290.222v0.059h-12.586v39.278h12.586
		v108.112h-12.586v14.278h8.334v62.722h-8.334v59.278h18.654c0.682-8.146,7.45-15.492,15.741-15.492v15.359h3.224l0.944-0.151H752
		v-20.204v-0.769v-9.876v-3.634v-97.55v-0.831v-150.58H705.58z"/>
	<polygon fill="#E6E6E6" stroke="#333333" stroke-width="0.75" stroke-miterlimit="10" points="665.456,329.5 665.456,290.222 
		602.28,290.222 602.28,309.75 614.28,309.875 614.28,328.575 572.195,328.575 572.195,573.486 649.335,573.486 653.244,573.486 
		664.688,573.486 664.688,514.408 656.882,514.408 656.882,451.949 665.456,451.949 665.456,437.671 653.244,437.671 653.244,329.5 
			"/>
	<polygon fill="#E6E6E6" stroke="#333333" stroke-width="0.75" stroke-miterlimit="10" points="480.396,548.555 480.396,420.699 
		519.876,420.699 519.876,410.16 480.396,410.16 480.396,332.212 493.887,332.212 499.481,332.212 499.481,313.448 493.887,313.448 
		493.887,290.785 480.396,290.785 480.396,290.67 469.505,290.67 469.505,311.875 469.505,548.555 469.505,553.811 469.505,573.486 
		572.195,573.486 572.195,548.555 	"/>
	<g>
		<rect x="627.032" y="328.189" fill="#E7E6E6" width="24.816" height="29.725"/>
		<g>
			
				<rect x="627.032" y="328.189" fill="none" stroke="#6F7071" stroke-width="1.5" stroke-miterlimit="10" width="24.816" height="29.725"/>
			
				<line fill="none" stroke="#6F7071" stroke-width="1.5" stroke-miterlimit="10" x1="627.033" y1="328.189" x2="651.851" y2="357.914"/>
			
				<line fill="none" stroke="#6F7071" stroke-width="1.5" stroke-miterlimit="10" x1="627.033" y1="357.914" x2="651.851" y2="328.189"/>
		</g>
	</g>
	<g>
		<rect x="627.032" y="365.888" fill="#E7E6E6" width="24.816" height="29.725"/>
		<g>
			
				<rect x="627.032" y="365.888" fill="none" stroke="#6F7071" stroke-width="1.5" stroke-miterlimit="10" width="24.816" height="29.725"/>
			
				<line fill="none" stroke="#6F7071" stroke-width="1.5" stroke-miterlimit="10" x1="627.033" y1="365.888" x2="651.851" y2="395.612"/>
			
				<line fill="none" stroke="#6F7071" stroke-width="1.5" stroke-miterlimit="10" x1="627.033" y1="395.612" x2="651.851" y2="365.888"/>
		</g>
	</g>
	<g>
		<rect x="627.032" y="403.586" fill="#E7E6E6" width="24.816" height="29.725"/>
		<g>
			
				<rect x="627.032" y="403.586" fill="none" stroke="#6F7071" stroke-width="1.5" stroke-miterlimit="10" width="24.816" height="29.725"/>
			
				<line fill="none" stroke="#6F7071" stroke-width="1.5" stroke-miterlimit="10" x1="627.033" y1="403.586" x2="651.851" y2="433.311"/>
			
				<line fill="none" stroke="#6F7071" stroke-width="1.5" stroke-miterlimit="10" x1="627.033" y1="433.311" x2="651.851" y2="403.586"/>
		</g>
	</g>
	<g>
		<rect x="573.195" y="336.163" fill="#E7E6E6" width="26.835" height="40.499"/>
		<g>
			
				<rect x="573.195" y="336.163" fill="none" stroke="#6F7071" stroke-width="1.5" stroke-miterlimit="10" width="26.835" height="40.499"/>
			
				<line fill="none" stroke="#6F7071" stroke-width="1.5" stroke-miterlimit="10" x1="573.196" y1="336.163" x2="600.032" y2="376.662"/>
			
				<line fill="none" stroke="#6F7071" stroke-width="1.5" stroke-miterlimit="10" x1="573.196" y1="376.662" x2="600.032" y2="336.163"/>
		</g>
	</g>
	<g>
		<rect x="707.183" y="329.189" fill="#E7E6E6" width="24.816" height="29.725"/>
		<g>
			
				<rect x="707.183" y="329.189" fill="none" stroke="#6F7071" stroke-width="1.5" stroke-miterlimit="10" width="24.816" height="29.725"/>
			
				<line fill="none" stroke="#6F7071" stroke-width="1.5" stroke-miterlimit="10" x1="707.184" y1="329.189" x2="732.001" y2="358.914"/>
			
				<line fill="none" stroke="#6F7071" stroke-width="1.5" stroke-miterlimit="10" x1="707.184" y1="358.914" x2="732.001" y2="329.189"/>
		</g>
	</g>
	<g>
		<rect x="707.183" y="366.887" fill="#E7E6E6" width="24.816" height="29.724"/>
		<g>
			
				<rect x="707.183" y="366.887" fill="none" stroke="#6F7071" stroke-width="1.5" stroke-miterlimit="10" width="24.816" height="29.724"/>
			
				<line fill="none" stroke="#6F7071" stroke-width="1.5" stroke-miterlimit="10" x1="707.184" y1="366.887" x2="732.001" y2="396.611"/>
			
				<line fill="none" stroke="#6F7071" stroke-width="1.5" stroke-miterlimit="10" x1="707.184" y1="396.611" x2="732.001" y2="366.887"/>
		</g>
	</g>
	<g>
		<rect x="707.183" y="407.586" fill="#E7E6E6" width="24.816" height="29.725"/>
		<g>
			
				<rect x="707.183" y="407.586" fill="none" stroke="#6F7071" stroke-width="1.5" stroke-miterlimit="10" width="24.816" height="29.725"/>
			
				<line fill="none" stroke="#6F7071" stroke-width="1.5" stroke-miterlimit="10" x1="707.184" y1="407.586" x2="732.001" y2="437.311"/>
			
				<line fill="none" stroke="#6F7071" stroke-width="1.5" stroke-miterlimit="10" x1="707.184" y1="437.311" x2="732.001" y2="407.586"/>
		</g>
	</g>
	<path fill="#E6E6E6" stroke="#333333" stroke-width="0.75" stroke-miterlimit="10" d="M529.4,291.313h-59.278v22.437l29.597,0.375
		v11.36l2.142,16.519l13.389,0.371l-0.149-16.89h4.749v4.423l10.551,0.169v-11.998c-8.146-0.621-15.492-5.789-15.492-13.343h14.359
		L529.4,291.313z"/>
	<path fill="#E6E6E6" stroke="#333333" stroke-width="0.75" stroke-miterlimit="10" d="M572.195,329.516l-14.215,0.169v-9.998
		c7.146-0.621,14.492-5.789,14.492-13.343h-14.359l-0.133-13.424h43.9l0.4,16.83l12,0.125v18.701h-42.085V329.516z"/>
	<path fill="#EECF9C" stroke="#333333" stroke-width="0.75" stroke-miterlimit="10" d="M515.092,325.612v13.849
		c-7.221,0-13.075-7.108-13.075-13.41l0.015-0.565h-22.443v84.521h40.261v-84.521h-4.749L515.092,325.612z"/>
	<rect x="482.447" y="395.012" fill="#EECF9C" width="17.813" height="5.369"/>
	
		<rect x="482.447" y="395.012" fill="none" stroke="#343333" stroke-width="0.75" stroke-miterlimit="10" width="17.813" height="5.369"/>
	<rect x="482.447" y="384.27" fill="#EECF9C" width="17.814" height="5.371"/>
	
		<rect x="482.447" y="384.27" fill="none" stroke="#343333" stroke-width="0.75" stroke-miterlimit="10" width="17.814" height="5.371"/>
	<rect x="482.447" y="389.641" fill="#EECF9C" width="17.814" height="5.371"/>
	
		<rect x="482.447" y="389.641" fill="none" stroke="#343333" stroke-width="0.75" stroke-miterlimit="10" width="17.814" height="5.371"/>
	<rect x="482.447" y="373.527" fill="#EECF9C" width="17.814" height="5.371"/>
	
		<rect x="482.447" y="373.527" fill="none" stroke="#343333" stroke-width="0.75" stroke-miterlimit="10" width="17.814" height="5.371"/>
	<rect x="482.447" y="378.898" fill="#EECF9C" width="17.814" height="5.371"/>
	
		<rect x="482.447" y="378.898" fill="none" stroke="#343333" stroke-width="0.75" stroke-miterlimit="10" width="17.814" height="5.371"/>
	<rect x="482.447" y="362.787" fill="#EECF9C" width="17.813" height="5.371"/>
	
		<rect x="482.447" y="362.787" fill="none" stroke="#343333" stroke-width="0.75" stroke-miterlimit="10" width="17.813" height="5.371"/>
	<rect x="482.447" y="368.158" fill="#EECF9C" width="17.814" height="5.371"/>
	
		<rect x="482.447" y="368.158" fill="none" stroke="#343333" stroke-width="0.75" stroke-miterlimit="10" width="17.814" height="5.371"/>
	<rect x="482.447" y="357.416" fill="#EECF9C" width="17.813" height="5.371"/>
	
		<rect x="482.447" y="357.416" fill="none" stroke="#343333" stroke-width="0.75" stroke-miterlimit="10" width="17.813" height="5.371"/>
	<rect x="482.448" y="346.675" fill="#EECF9C" width="17.813" height="5.37"/>
	
		<rect x="482.448" y="346.675" fill="none" stroke="#343333" stroke-width="0.75" stroke-miterlimit="10" width="17.813" height="5.37"/>
	<rect x="482.447" y="352.045" fill="#EECF9C" width="17.814" height="5.371"/>
	
		<rect x="482.447" y="352.045" fill="none" stroke="#343333" stroke-width="0.75" stroke-miterlimit="10" width="17.814" height="5.371"/>
	<rect x="501.49" y="395.012" fill="#EECF9C" width="17.813" height="5.369"/>
	
		<rect x="501.49" y="395.012" fill="none" stroke="#343333" stroke-width="0.75" stroke-miterlimit="10" width="17.813" height="5.369"/>
	<rect x="501.49" y="384.27" fill="#EECF9C" width="17.813" height="5.371"/>
	
		<rect x="501.49" y="384.27" fill="none" stroke="#343333" stroke-width="0.75" stroke-miterlimit="10" width="17.813" height="5.371"/>
	<rect x="501.49" y="389.641" fill="#EECF9C" width="17.813" height="5.371"/>
	
		<rect x="501.49" y="389.641" fill="none" stroke="#343333" stroke-width="0.75" stroke-miterlimit="10" width="17.813" height="5.371"/>
	<rect x="501.49" y="373.527" fill="#EECF9C" width="17.813" height="5.371"/>
	
		<rect x="501.49" y="373.527" fill="none" stroke="#343333" stroke-width="0.75" stroke-miterlimit="10" width="17.813" height="5.371"/>
	<rect x="501.49" y="378.898" fill="#EECF9C" width="17.813" height="5.371"/>
	
		<rect x="501.49" y="378.898" fill="none" stroke="#343333" stroke-width="0.75" stroke-miterlimit="10" width="17.813" height="5.371"/>
	<rect x="501.49" y="362.787" fill="#EECF9C" width="17.813" height="5.371"/>
	
		<rect x="501.49" y="362.787" fill="none" stroke="#343333" stroke-width="0.75" stroke-miterlimit="10" width="17.813" height="5.371"/>
	<rect x="501.49" y="368.159" fill="#EECF9C" width="17.813" height="5.37"/>
	
		<rect x="501.49" y="368.159" fill="none" stroke="#343333" stroke-width="0.75" stroke-miterlimit="10" width="17.813" height="5.37"/>
	<rect x="501.49" y="357.416" fill="#EECF9C" width="17.813" height="5.371"/>
	
		<rect x="501.49" y="357.416" fill="none" stroke="#343333" stroke-width="0.75" stroke-miterlimit="10" width="17.813" height="5.371"/>
	<rect x="501.49" y="346.675" fill="#EECF9C" width="17.813" height="5.37"/>
	
		<rect x="501.49" y="346.675" fill="none" stroke="#343333" stroke-width="0.75" stroke-miterlimit="10" width="17.813" height="5.37"/>
	<rect x="501.49" y="352.044" fill="#EECF9C" width="17.813" height="5.372"/>
	
		<rect x="501.49" y="352.044" fill="none" stroke="#343333" stroke-width="0.75" stroke-miterlimit="10" width="17.813" height="5.372"/>
	<path fill="#EECF9C" stroke="#333333" stroke-width="0.75" stroke-miterlimit="10" d="M707.002,542.584v-12.286
		c7.749,0,14.03,5.297,14.03,11.831l-0.017,0.586h24.081V455.08h-43.2v87.635h5.097L707.002,542.584z"/>
	<rect x="723.989" y="467.819" fill="#EECF9C" width="19.113" height="5.37"/>
	
		<rect x="723.989" y="467.819" fill="none" stroke="#343333" stroke-width="0.75" stroke-miterlimit="10" width="19.113" height="5.37"/>
	<rect x="723.989" y="478.56" fill="#EECF9C" width="19.113" height="5.371"/>
	
		<rect x="723.989" y="478.56" fill="none" stroke="#343333" stroke-width="0.75" stroke-miterlimit="10" width="19.113" height="5.371"/>
	<rect x="723.989" y="473.188" fill="#EECF9C" width="19.113" height="5.371"/>
	
		<rect x="723.989" y="473.188" fill="none" stroke="#343333" stroke-width="0.75" stroke-miterlimit="10" width="19.113" height="5.371"/>
	<rect x="723.989" y="489.302" fill="#EECF9C" width="19.113" height="5.371"/>
	
		<rect x="723.989" y="489.302" fill="none" stroke="#343333" stroke-width="0.75" stroke-miterlimit="10" width="19.113" height="5.371"/>
	<rect x="723.989" y="483.931" fill="#EECF9C" width="19.114" height="5.371"/>
	
		<rect x="723.989" y="483.931" fill="none" stroke="#343333" stroke-width="0.75" stroke-miterlimit="10" width="19.114" height="5.371"/>
	<rect x="723.989" y="500.042" fill="#EECF9C" width="19.113" height="5.371"/>
	
		<rect x="723.989" y="500.042" fill="none" stroke="#343333" stroke-width="0.75" stroke-miterlimit="10" width="19.113" height="5.371"/>
	<rect x="723.989" y="494.671" fill="#EECF9C" width="19.113" height="5.371"/>
	
		<rect x="723.989" y="494.671" fill="none" stroke="#343333" stroke-width="0.75" stroke-miterlimit="10" width="19.113" height="5.371"/>
	<rect x="723.989" y="505.413" fill="#EECF9C" width="19.113" height="5.371"/>
	
		<rect x="723.989" y="505.413" fill="none" stroke="#343333" stroke-width="0.75" stroke-miterlimit="10" width="19.113" height="5.371"/>
	<rect x="723.989" y="516.155" fill="#EECF9C" width="19.113" height="5.37"/>
	
		<rect x="723.989" y="516.155" fill="none" stroke="#343333" stroke-width="0.75" stroke-miterlimit="10" width="19.113" height="5.37"/>
	<rect x="723.989" y="510.784" fill="#EECF9C" width="19.113" height="5.371"/>
	
		<rect x="723.989" y="510.784" fill="none" stroke="#343333" stroke-width="0.75" stroke-miterlimit="10" width="19.113" height="5.371"/>
	<rect x="703.556" y="467.819" fill="#EECF9C" width="19.113" height="5.37"/>
	
		<rect x="703.556" y="467.819" fill="none" stroke="#343333" stroke-width="0.75" stroke-miterlimit="10" width="19.113" height="5.37"/>
	<rect x="703.556" y="478.56" fill="#EECF9C" width="19.113" height="5.371"/>
	
		<rect x="703.556" y="478.56" fill="none" stroke="#343333" stroke-width="0.75" stroke-miterlimit="10" width="19.113" height="5.371"/>
	<rect x="703.556" y="473.188" fill="#EECF9C" width="19.113" height="5.371"/>
	
		<rect x="703.556" y="473.188" fill="none" stroke="#343333" stroke-width="0.75" stroke-miterlimit="10" width="19.113" height="5.371"/>
	<rect x="703.556" y="489.302" fill="#EECF9C" width="19.113" height="5.371"/>
	
		<rect x="703.556" y="489.302" fill="none" stroke="#343333" stroke-width="0.75" stroke-miterlimit="10" width="19.113" height="5.371"/>
	<rect x="703.556" y="483.931" fill="#EECF9C" width="19.114" height="5.371"/>
	
		<rect x="703.556" y="483.931" fill="none" stroke="#343333" stroke-width="0.75" stroke-miterlimit="10" width="19.114" height="5.371"/>
	<rect x="703.556" y="500.042" fill="#EECF9C" width="19.113" height="5.371"/>
	
		<rect x="703.556" y="500.042" fill="none" stroke="#343333" stroke-width="0.75" stroke-miterlimit="10" width="19.113" height="5.371"/>
	<rect x="703.556" y="494.671" fill="#EECF9C" width="19.113" height="5.37"/>
	
		<rect x="703.556" y="494.671" fill="none" stroke="#343333" stroke-width="0.75" stroke-miterlimit="10" width="19.113" height="5.37"/>
	<rect x="703.556" y="505.413" fill="#EECF9C" width="19.113" height="5.371"/>
	
		<rect x="703.556" y="505.413" fill="none" stroke="#343333" stroke-width="0.75" stroke-miterlimit="10" width="19.113" height="5.371"/>
	<rect x="703.556" y="516.155" fill="#EECF9C" width="19.113" height="5.37"/>
	
		<rect x="703.556" y="516.155" fill="none" stroke="#343333" stroke-width="0.75" stroke-miterlimit="10" width="19.113" height="5.37"/>
	<rect x="703.556" y="510.784" fill="#EECF9C" width="19.113" height="5.372"/>
	
		<rect x="703.556" y="510.784" fill="none" stroke="#343333" stroke-width="0.75" stroke-miterlimit="10" width="19.113" height="5.372"/>
	<rect x="594.07" y="690.563" fill="none" stroke="#7A7D7A" stroke-width="0.5" width="4.44" height="24.76"/>
	<rect x="589.75" y="690.563" fill="none" stroke="#7A7D7A" stroke-width="0.5" width="4.44" height="24.76"/>
	<rect x="585.13" y="690.563" fill="none" stroke="#7A7D7A" stroke-width="0.5" width="4.439" height="24.76"/>
	<rect x="580.75" y="690.563" fill="none" stroke="#7A7D7A" stroke-width="0.5" width="4.44" height="24.76"/>
	<rect x="603.13" y="690.563" fill="none" stroke="#7A7D7A" stroke-width="0.5" width="4.44" height="24.76"/>
	<rect x="607.572" y="690.563" fill="none" stroke="#7A7D7A" stroke-width="0.5" width="4.44" height="24.76"/>
	<rect x="612.017" y="690.563" fill="none" stroke="#7A7D7A" stroke-width="0.5" width="4.44" height="24.76"/>
	<rect x="616.376" y="690.563" fill="none" stroke="#7A7D7A" stroke-width="0.5" width="4.439" height="24.76"/>
	<rect x="620.992" y="690.563" fill="none" stroke="#7A7D7A" stroke-width="0.5" width="4.44" height="24.76"/>
	<rect x="598.751" y="690.563" fill="none" stroke="#7A7D7A" stroke-width="0.5" width="4.439" height="24.76"/>
	<rect x="594.07" y="717.152" fill="none" stroke="#7A7D7A" stroke-width="0.5" width="4.44" height="24.76"/>
	<rect x="589.75" y="717.152" fill="none" stroke="#7A7D7A" stroke-width="0.5" width="4.44" height="24.76"/>
	<rect x="585.13" y="717.152" fill="none" stroke="#7A7D7A" stroke-width="0.5" width="4.439" height="24.76"/>
	<rect x="580.75" y="717.152" fill="none" stroke="#7A7D7A" stroke-width="0.5" width="4.44" height="24.76"/>
	<rect x="603.13" y="717.152" fill="none" stroke="#7A7D7A" stroke-width="0.5" width="4.44" height="24.76"/>
	<rect x="607.572" y="717.152" fill="none" stroke="#7A7D7A" stroke-width="0.5" width="4.44" height="24.76"/>
	<rect x="612.017" y="717.152" fill="none" stroke="#7A7D7A" stroke-width="0.5" width="4.44" height="24.76"/>
	<rect x="616.376" y="717.152" fill="none" stroke="#7A7D7A" stroke-width="0.5" width="4.439" height="24.76"/>
	<rect x="620.992" y="717.152" fill="none" stroke="#7A7D7A" stroke-width="0.5" width="4.44" height="24.76"/>
	<rect x="598.751" y="717.152" fill="none" stroke="#7A7D7A" stroke-width="0.5" width="4.439" height="24.76"/>
	<polygon fill="none" stroke="#333333" stroke-width="3" points="657,688.897 567,688.897 567,743.88 657,743.796 	"/>
	
		<line fill="#E6E6E6" stroke="#333333" stroke-width="0.75" stroke-miterlimit="10" x1="701.896" y1="542.715" x2="692.994" y2="542.715"/>
	<polyline fill="none" stroke="#333333" stroke-width="0.75" stroke-miterlimit="10" points="723.496,542.715 723.496,553.377 
		729.584,553.377 	"/>
	<path fill="none" stroke="#333333" stroke-width="0.75" stroke-miterlimit="10" d="M665.091,569.751
		c7.266,0,13.194-6.436,13.792-13.572v0.25c0.598-7.137,6.527-13.572,13.792-13.572"/>
	<path fill="none" stroke="#333333" stroke-width="0.75" stroke-miterlimit="10" d="M524.422,329.982v21.673h-4.572h16.57
		c0.621-8.146,5.789-14.492,13.343-14.492v14.359l13.424,0.133"/>
	<polyline fill="none" stroke="#333333" stroke-width="0.75" stroke-miterlimit="10" points="567.625,400.863 567.625,352.75 
		563.187,352.75 563.187,330.375 558,330.375 558,327.25 	"/>
	<path fill="none" stroke="#333333" stroke-width="0.75" stroke-miterlimit="10" d="M665.456,324.198
		c7.266,0,13.194-6.436,13.792-13.572v0.25c0.598-7.137,6.527-13.572,13.792-13.572"/>
</g>
<g id="Bathrooms">
	<path fill="#9EA1BF" stroke="#333333" stroke-width="0.75" stroke-miterlimit="10" d="M541.002,400.456v15.241
		c-8.544,0-15.489-6.773-15.804-15.241h-5.237v20.243h-39.908v128.514l47.325-0.745V441.986l16.375-0.153l0.417-0.004v-41.373
		H541.002z"/>
	<path fill="#9EA1BF" stroke="#333333" stroke-width="0.75" stroke-miterlimit="10" d="M562.134,400.456
		c-0.314,8.468-7.259,15.241-15.804,15.241v-15.241h-2.235v41.479h-17.26v106.277h45.359V400.456H562.134z"/>
	<path fill="none" stroke="#6C6C6C" stroke-width="0.75" stroke-miterlimit="10" d="M569.081,441.326v0.229v15.605
		c-7.745,0-14.833-7.09-14.833-15.834h-9.549"/>
	<path fill="none" stroke="#6C6C6C" stroke-width="0.75" stroke-miterlimit="10" d="M572.195,441.506"/>
	
		<line fill="#9EA1BF" stroke="#6C6C6C" stroke-width="0.75" stroke-miterlimit="10" x1="569.081" y1="441.555" x2="572.195" y2="441.555"/>
</g>
<g id="posts">
	<rect x="669.921" y="741.1" fill="#414142" width="15.78" height="15.656"/>
	<rect x="538.318" y="741.1" fill="#414142" width="15.78" height="15.656"/>
	<rect x="407.526" y="741.1" fill="#414142" width="14.42" height="15.656"/>
	<rect x="288.574" y="622.821" fill="#414142" width="15.78" height="14.679"/>
	<rect x="289" y="490.588" fill="#414142" width="15.78" height="15.656"/>
	<rect x="289" y="359.867" fill="#414142" width="15.78" height="15.656"/>
	<rect x="289" y="228.792" fill="#414142" width="15.78" height="15.656"/>
	<rect x="407.141" y="109.985" fill="#414142" width="14.812" height="15.656"/>
	<rect x="539.132" y="109.985" fill="#414142" width="15.78" height="15.656"/>
	<rect x="670.396" y="109.985" fill="#414142" width="15.207" height="14.886"/>
	<rect x="801.239" y="109.985" fill="#414142" width="15.605" height="15.656"/>
	<rect x="920.354" y="228.792" fill="#414142" width="14.313" height="14.853"/>
	<rect x="919.672" y="360.032" fill="#414142" width="14.995" height="14.923"/>
	<rect x="919.842" y="490.755" fill="#414142" width="14.825" height="15.656"/>
	<rect x="919.842" y="622.721" fill="#414142" width="14.825" height="15.239"/>
	<rect x="800.825" y="741.1" fill="#414142" width="15.78" height="15.656"/>
	<rect x="468.376" y="290.67" fill="#414142" width="26.063" height="24.531"/>
	<rect x="729" y="290.67" fill="#414142" width="25.1" height="24.531"/>
	<rect x="468.486" y="550.36" fill="#414142" width="26.063" height="26.151"/>
	<rect x="729.037" y="550.36" fill="#414142" width="26.063" height="26.151"/>
	<line fill="none" stroke="#6C6C6C" stroke-miterlimit="10" x1="391.472" y1="231.509" x2="432.167" y2="231.509"/>
	
		<line fill="none" stroke="#000000" stroke-width="0.7508" stroke-linecap="round" stroke-linejoin="round" stroke-miterlimit="10" x1="784.214" y1="231.75" x2="833.126" y2="231.75"/>
	
		<line fill="none" stroke="#000000" stroke-width="0.7508" stroke-linecap="round" stroke-linejoin="round" stroke-miterlimit="10" x1="601.88" y1="230.69" x2="613.28" y2="230.69"/>
	
		<polyline fill="none" stroke="#000000" stroke-width="0.7508" stroke-linecap="round" stroke-linejoin="round" stroke-miterlimit="10" points="
		794.743,562.436 833.567,562.436 833.567,546.583 	"/>
	
		<path fill="none" stroke="#000000" stroke-width="0.7508" stroke-linecap="round" stroke-linejoin="round" stroke-miterlimit="10" d="
		M760.25,518.167"/>
	
		<line fill="none" stroke="#000000" stroke-width="0.7508" stroke-linecap="round" stroke-linejoin="round" stroke-miterlimit="10" x1="832.32" y1="519.333" x2="832.32" y2="529.468"/>
</g>
<g id="Outline">
	<polygon fill="none" stroke="#000000" stroke-width="1.5" stroke-miterlimit="10" points="924.834,228.987 924.834,188.815 
		857,120.981 816.598,120.981 816.598,109.985 407.15,109.985 407.15,120.91 365.719,120.91 297.885,188.744 297.885,228.987 
		289,228.987 289,637.5 299.7,637.5 299.7,678.474 367.534,746.308 407.15,746.308 407.15,756.994 816.598,756.994 816.598,745.558 
		856.586,745.558 924.42,677.724 924.42,637.5 934.667,637.5 934.667,228.987 	"/>
</g>
<g id="Labels">
	<text transform="matrix(1 0 0 1 378.1514 157.2383)" fill="#333333" font-family="'MyriadPro-Regular'" font-size="8">717</text>
	<text transform="matrix(1 0 0 1 320.0972 217.293)" fill="#333333" font-family="'MyriadPro-Regular'" font-size="8">718</text>
	<text transform="matrix(1 0 0 1 320.0972 274.2715)" fill="#333333" font-family="'MyriadPro-Regular'" font-size="8">719</text>
	<text transform="matrix(1 0 0 1 320.0972 337.249)" fill="#333333" font-family="'MyriadPro-Regular'" font-size="8">720</text>
	<text transform="matrix(1 0 0 1 320.0972 436.2266)" fill="#333333" font-family="'MyriadPro-Regular'" font-size="8">722</text>
	<text transform="matrix(1 0 0 1 320.0972 480.043)" fill="#333333" font-family="'MyriadPro-Regular'" font-size="8">723</text>
	<text transform="matrix(1 0 0 1 320.0972 533.1484)" fill="#333333" font-family="'MyriadPro-Regular'" font-size="8">724</text>
	<text transform="matrix(1 0 0 1 320.0972 599.2539)" fill="#333333" font-family="'MyriadPro-Regular'" font-size="8">725</text>
	<text transform="matrix(1 0 0 1 320.0972 659.3594)" fill="#333333" font-family="'MyriadPro-Regular'" font-size="8">726</text>
	<text transform="matrix(1 0 0 1 384.71 703.4277)" fill="#333333" font-family="'MyriadPro-Regular'" font-size="8">728</text>
	<text transform="matrix(1 0 0 1 384.71 740.4141)" fill="#333333" font-family="'MyriadPro-Regular'" font-size="8">727</text>
	<text transform="matrix(1 0 0 1 445.2773 727.4277)" fill="#333333" font-family="'MyriadPro-Regular'" font-size="8">738</text>
	<text transform="matrix(1 0 0 1 449.9492 633.1289)" fill="#333333" font-family="'MyriadPro-Regular'" font-size="8">749</text>
	<text transform="matrix(1 0 0 1 399.9658 634.1289)" fill="#333333" font-family="'MyriadPro-Regular'" font-size="8">729A</text>
	<text transform="matrix(1 0 0 1 400.2451 586.8203)" fill="#333333" font-family="'MyriadPro-Regular'" font-size="8">729B</text>
	<text transform="matrix(1 0 0 1 403.4131 540.5547)" fill="#333333" font-family="'MyriadPro-Regular'" font-size="8">730</text>
	<text transform="matrix(1 0 0 1 423.9282 491.3027)" fill="#333333" font-family="'MyriadPro-Regular'" font-size="8">732</text>
	<text transform="matrix(1 0 0 1 443.7202 586.8203)" fill="#333333" font-family="'MyriadPro-Regular'" font-size="8">731</text>
	<text transform="matrix(1 0 0 1 543.6392 591.8203)" fill="#333333" font-family="'MyriadPro-Regular'" font-size="8">750</text>
	<text transform="matrix(1 0 0 1 495.3452 633.1289)" fill="#333333" font-family="'MyriadPro-Regular'" font-size="8">748</text>
	<text transform="matrix(1 0 0 1 544.7412 633.1289)" fill="#333333" font-family="'MyriadPro-Regular'" font-size="8">747</text>
	<text transform="matrix(1 0 0 1 611.1372 633.1289)" fill="#333333" font-family="'MyriadPro-Regular'" font-size="8">746</text>
	<text transform="matrix(1 0 0 1 760.707 629.1289)" fill="#333333" font-family="'MyriadPro-Regular'" font-size="8">744</text>
	<text transform="matrix(1 0 0 1 760.707 586.9277)" fill="#333333" font-family="'MyriadPro-Regular'" font-size="8">770</text>
	<text transform="matrix(1 0 0 1 757.707 483.9297)" fill="#333333" font-family="'MyriadPro-Regular'" font-size="8">767</text>
	<text transform="matrix(1 0 0 1 674.1758 384.2695)" fill="#333333" font-family="'MyriadPro-Regular'" font-size="8">700</text>
	<text transform="matrix(1 0 0 1 702.0273 558.957)" fill="#333333" font-family="'MyriadPro-Regular'" font-size="8">768</text>
	<text transform="matrix(1 0 0 1 797.9766 485.3027)" fill="#333333" font-family="'MyriadPro-Regular'" font-size="8">766</text>
	<text transform="matrix(1 0 0 1 765.707 326.9541)" fill="#333333" font-family="'MyriadPro-Regular'" font-size="8">764</text>
	<text transform="matrix(1 0 0 1 805.9766 349.9541)" fill="#333333" font-family="'MyriadPro-Regular'" font-size="8">763</text>
	<text transform="matrix(1 0 0 1 803.8086 307.9648)" fill="#333333" font-family="'MyriadPro-Regular'" font-size="8">762B</text>
	<text transform="matrix(1 0 0 1 803.5293 260.9756)" fill="#333333" font-family="'MyriadPro-Regular'" font-size="8">762A</text>
	<text transform="matrix(1 0 0 1 745.8438 256.8994)" fill="#333333" font-family="'MyriadPro-Regular'" font-size="8">702</text>
	<text transform="matrix(1 0 0 1 619.6738 263.8994)" fill="#333333" font-family="'MyriadPro-Regular'" font-size="8">701</text>
	<text transform="matrix(1 0 0 1 574.3394 263.8994)" fill="#333333" font-family="'MyriadPro-Regular'" font-size="8">708</text>
	<text transform="matrix(1 0 0 1 574.3394 312.5352)" fill="#333333" font-family="'MyriadPro-Regular'" font-size="8">710</text>
	<text transform="matrix(1 0 0 1 536.8438 376.2129)" fill="#333333" font-family="'MyriadPro-Regular'" font-size="8">711</text>
	<text transform="matrix(1 0 0 1 551.8438 429.5469)" fill="#333333" font-family="'MyriadPro-Regular'" font-size="8">713</text>
	<text transform="matrix(1 0 0 1 523.1777 429.5469)" fill="#333333" font-family="'MyriadPro-Regular'" font-size="8">712</text>
	<text transform="matrix(1 0 0 1 500.6729 312.5352)" fill="#333333" font-family="'MyriadPro-Regular'" font-size="8">773</text>
	<text transform="matrix(1 0 0 1 785.7598 406.707)" fill="#333333" font-family="'MyriadPro-Regular'" font-size="8">765</text>
	<text transform="matrix(1 0 0 1 805.7363 638.1289)" fill="#333333" font-family="'MyriadPro-Regular'" font-size="8">771B</text>
	<text transform="matrix(1 0 0 1 805.457 590.5176)" fill="#333333" font-family="'MyriadPro-Regular'" font-size="8">771A</text>
	<text transform="matrix(1 0 0 1 503.9561 727.4277)" fill="#333333" font-family="'MyriadPro-Regular'" font-size="8">739</text>
	<text transform="matrix(1 0 0 1 703.207 736.3184)" fill="#333333" font-family="'MyriadPro-Regular'" font-size="8">741</text>
	<text transform="matrix(1 0 0 1 708.6201 625.1289)" fill="#333333" font-family="'MyriadPro-Regular'" font-size="8">745</text>
	<text transform="matrix(1 0 0 1 320.0972 393.3184)" fill="#333333" font-family="'MyriadPro-Regular'" font-size="8">721</text>
	<text transform="matrix(1 0 0 1 485.3169 157.2383)" fill="#333333" font-family="'MyriadPro-Regular'" font-size="8">706</text>
	<text transform="matrix(1 0 0 1 617.0859 157.2383)" fill="#333333" font-family="'MyriadPro-Regular'" font-size="8">705</text>
	<text transform="matrix(1 0 0 1 707.8555 157.2383)" fill="#333333" font-family="'MyriadPro-Regular'" font-size="8">704</text>
	<text transform="matrix(1 0 0 1 766.875 157.2383)" fill="#333333" font-family="'MyriadPro-Regular'" font-size="8">703</text>
	<text transform="matrix(1 0 0 1 830.7559 157.2383)" fill="#333333" font-family="'MyriadPro-Regular'" font-size="8">761</text>
	<text transform="matrix(1 0 0 1 891.8867 212.0352)" fill="#333333" font-family="'MyriadPro-Regular'" font-size="8">760</text>
	<text transform="matrix(1 0 0 1 891.8867 276.7471)" fill="#333333" font-family="'MyriadPro-Regular'" font-size="8">759</text>
	<text transform="matrix(1 0 0 1 891.8867 338.4727)" fill="#333333" font-family="'MyriadPro-Regular'" font-size="8">758</text>
	<text transform="matrix(1 0 0 1 891.8867 392.9355)" fill="#333333" font-family="'MyriadPro-Regular'" font-size="8">757</text>
	<text transform="matrix(1 0 0 1 891.8867 436.3984)" fill="#333333" font-family="'MyriadPro-Regular'" font-size="8">756</text>
	<text transform="matrix(1 0 0 1 891.8867 479.8613)" fill="#333333" font-family="'MyriadPro-Regular'" font-size="8">755</text>
	<text transform="matrix(1 0 0 1 891.8867 535.3242)" fill="#333333" font-family="'MyriadPro-Regular'" font-size="8">754</text>
	<text transform="matrix(1 0 0 1 891.8867 600.7871)" fill="#333333" font-family="'MyriadPro-Regular'" font-size="8">753</text>
	<text transform="matrix(1 0 0 1 891.8867 663.3398)" fill="#333333" font-family="'MyriadPro-Regular'" font-size="8">752</text>
	<text transform="matrix(1 0 0 1 831.207 723.3672)" fill="#333333" font-family="'MyriadPro-Regular'" font-size="8">743</text>
	<text transform="matrix(1 0 0 1 762.3594 723.3672)" fill="#333333" font-family="'MyriadPro-Regular'" font-size="8">742</text>
	<text transform="matrix(1 0 0 1 423.5947 439.5547)" fill="#333333" font-family="'MyriadPro-Regular'" font-size="8">733</text>
	<text transform="matrix(1 0 0 1 403.9092 350.0449)" fill="#333333" font-family="'MyriadPro-Regular'" font-size="8">735</text>
	<text transform="matrix(1 0 0 1 412.9092 391.3184)" fill="#333333" font-family="'MyriadPro-Regular'" font-size="8">734</text>
	<text transform="matrix(1 0 0 1 401.4619 307.5361)" fill="#333333" font-family="'MyriadPro-Regular'" font-size="8">737A</text>
	<text transform="matrix(1 0 0 1 401.7412 260.9756)" fill="#333333" font-family="'MyriadPro-Regular'" font-size="8">737B</text>
	<text transform="matrix(1 0 0 1 470.9297 262.8057)" fill="#333333" font-family="'MyriadPro-Regular'" font-size="8">707</text>
	<text transform="matrix(1 0 0 1 443.3169 334.6729)" fill="#333333" font-family="'MyriadPro-Regular'" font-size="8">736</text>
	<text transform="matrix(1 0 0 1 488.0259 482.1006)" fill="#333333" font-family="'MyriadPro-Regular'" font-size="8">Women&apos;s</text>
	<text transform="matrix(1 0 0 1 487.4019 491.1309)" fill="#333333" font-family="'MyriadPro-Regular'" font-size="8">Restroom</text>
	<text transform="matrix(1 0 0 1 539.0547 482.1006)" fill="#333333" font-family="'MyriadPro-Regular'" font-size="8">Men’s</text>
	<text transform="matrix(1 0 0 1 532.8066 491.1309)" fill="#333333" font-family="'MyriadPro-Regular'" font-size="8">Restroom</text>
</g>
</svg>
